{
	"asset":{
		"version":"2.0",
		"generator":"Houdini GLTF 2.0 Exporter"
	},
	"accessors":[
		{
			"bufferView":0,
			"componentType":5125,
			"count":200310,
			"type":"SCALAR",
			"min":[0
			],
			"max":[125375
			]
		},
		{
			"bufferView":1,
			"componentType":5126,
			"count":125376,
			"type":"VEC3",
			"min":[0,0,-64
			],
			"max":[128,46.3977547,64
			]
		},
		{
			"bufferView":2,
			"componentType":5126,
			"count":125376,
			"type":"VEC3",
			"min":[-1,-1,-1
			],
			"max":[0.808395207,1,1
			]
		},
		{
			"bufferView":3,
			"componentType":5126,
			"count":125376,
			"type":"VEC4",
			"min":[-0.99999994,-0.265580744,-0.808388352,1
			],
			"max":[1,0.141386673,0.99999994,1
			]
		},
		{
			"bufferView":4,
			"componentType":5126,
			"count":125376,
			"type":"VEC3",
			"min":[0.0669559985,0.0729853362,0.0759999976
			],
			"max":[2,0.88376987,0.966061413
			]
		},
		{
			"bufferView":5,
			"componentType":5126,
			"count":125376,
			"type":"VEC2",
			"min":[0,0.00555562973
			],
			"max":[0.994528532,1
			]
		}
	],
	"buffers":[
		{
			"uri":"mesh_bdgs_vista_a_data.bin",
			"byteLength":8323800,
			"name":"main_buffer"
		}
	],
	"bufferViews":[
		{
			"buffer":0,
			"byteLength":801240,
			"target":34963
		},
		{
			"buffer":0,
			"byteOffset":801240,
			"byteLength":1504512,
			"target":34962
		},
		{
			"buffer":0,
			"byteOffset":2305752,
			"byteLength":1504512,
			"target":34962
		},
		{
			"buffer":0,
			"byteOffset":3810264,
			"byteLength":2006016,
			"target":34962
		},
		{
			"buffer":0,
			"byteOffset":5816280,
			"byteLength":1504512,
			"target":34962
		},
		{
			"buffer":0,
			"byteOffset":7320792,
			"byteLength":1003008,
			"target":34962
		}
	],
	"nodes":[
		{
			"name":"geo1",
			"mesh":0
		}
	],
	"meshes":[
		{
			"primitives":[
				{
					"attributes":{
						"TEXCOORD_0":5,
						"COLOR_0":4,
						"TANGENT":3,
						"POSITION":1,
						"NORMAL":2
					},
					"indices":0,
					"material":0
				}
			],
			"name":"divide1"
		}
	],
	"materials":[
		{
			"name":"unlit",
			"pbrMetallicRoughness":{
				"baseColorFactor":[0.200000003,0.200000003,0.200000003,1
				],
				"metallicFactor":0,
				"roughnessFactor":0.300000012
			}
		}
	],
	"scenes":[
		{
			"nodes":[0
			]
		}
	],
	"scene":0
}
