{
	"asset":{
		"version":"2.0",
		"generator":"Houdini GLTF 2.0 Exporter"
	},
	"accessors":[
		{
			"bufferView":0,
			"componentType":5125,
			"count":200310,
			"type":"SCALAR",
			"min":[0
			],
			"max":[124245
			]
		},
		{
			"bufferView":1,
			"componentType":5126,
			"count":124246,
			"type":"VEC3",
			"min":[0,0,-64
			],
			"max":[128,46.3977547,64
			]
		},
		{
			"bufferView":2,
			"componentType":5126,
			"count":124246,
			"type":"VEC3",
			"min":[0.0669559985,0.0729853362,0.02909863
			],
			"max":[1.99999499,1.19997668,0.611634314
			]
		},
		{
			"bufferView":3,
			"componentType":5126,
			"count":124246,
			"type":"VEC3",
			"min":[-1,-1,-1
			],
			"max":[0.808395207,1,1
			]
		},
		{
			"bufferView":4,
			"componentType":5126,
			"count":124246,
			"type":"VEC4",
			"min":[-0.999999881,-0.265580744,-0.956431448,1
			],
			"max":[1,0.141703844,0.999999881,1
			]
		},
		{
			"bufferView":5,
			"componentType":5126,
			"count":124246,
			"type":"VEC2",
			"min":[0,0.00557774305
			],
			"max":[0.994467318,1
			]
		}
	],
	"buffers":[
		{
			"uri":"mesh_bdgs_vista_a_data.bin",
			"byteLength":8256000,
			"name":"main_buffer"
		}
	],
	"bufferViews":[
		{
			"buffer":0,
			"byteLength":801240,
			"target":34963
		},
		{
			"buffer":0,
			"byteOffset":801240,
			"byteLength":1490952,
			"target":34962
		},
		{
			"buffer":0,
			"byteOffset":2292192,
			"byteLength":1490952,
			"target":34962
		},
		{
			"buffer":0,
			"byteOffset":3783144,
			"byteLength":1490952,
			"target":34962
		},
		{
			"buffer":0,
			"byteOffset":5274096,
			"byteLength":1987936,
			"target":34962
		},
		{
			"buffer":0,
			"byteOffset":7262032,
			"byteLength":993968,
			"target":34962
		}
	],
	"nodes":[
		{
			"name":"geo1",
			"mesh":0
		}
	],
	"meshes":[
		{
			"primitives":[
				{
					"attributes":{
						"TEXCOORD_0":5,
						"TANGENT":4,
						"COLOR_0":2,
						"POSITION":1,
						"NORMAL":3
					},
					"indices":0,
					"material":0
				}
			],
			"name":"divide1"
		}
	],
	"materials":[
		{
			"name":"unlit",
			"pbrMetallicRoughness":{
				"baseColorFactor":[0.200000003,0.200000003,0.200000003,1
				],
				"metallicFactor":0,
				"roughnessFactor":0.300000012
			}
		}
	],
	"scenes":[
		{
			"nodes":[0
			]
		}
	],
	"scene":0
}
