{
	"asset":{
		"version":"2.0",
		"generator":"Houdini GLTF 2.0 Exporter"
	},
	"accessors":[
		{
			"bufferView":0,
			"componentType":5123,
			"count":30249,
			"type":"SCALAR",
			"min":[0
			],
			"max":[25105
			]
		},
		{
			"bufferView":1,
			"componentType":5126,
			"count":25106,
			"type":"VEC3",
			"min":[-2.67755246,-30.0863838,-0.168789595
			],
			"max":[9.67362785,0.449999988,10.1753302
			]
		},
		{
			"bufferView":2,
			"componentType":5126,
			"count":25106,
			"type":"SCALAR",
			"min":[-1.57079661
			],
			"max":[6.28318548
			]
		},
		{
			"bufferView":3,
			"componentType":5126,
			"count":25106,
			"type":"SCALAR",
			"min":[0
			],
			"max":[1
			]
		},
		{
			"bufferView":4,
			"componentType":5126,
			"count":25106,
			"type":"VEC3",
			"min":[-1,-1,-1
			],
			"max":[0.0724187344,1,1
			]
		},
		{
			"bufferView":5,
			"componentType":5126,
			"count":25106,
			"type":"SCALAR",
			"min":[1
			],
			"max":[1
			]
		},
		{
			"bufferView":6,
			"componentType":5126,
			"count":25106,
			"type":"VEC4",
			"min":[-1,-0.999955237,-0.673927844,1
			],
			"max":[1,0.894427359,1,1
			]
		},
		{
			"bufferView":7,
			"componentType":5126,
			"count":25106,
			"type":"VEC2",
			"min":[0,0.0177193284
			],
			"max":[0.982468843,1
			]
		},
		{
			"bufferView":8,
			"componentType":5126,
			"count":25106,
			"type":"VEC3",
			"min":[0.0551819988,0.0575229004,0.0160540026
			],
			"max":[1,0.779268742,0.929521382
			]
		},
		{
			"bufferView":9,
			"componentType":5125,
			"count":25106,
			"type":"SCALAR",
			"min":[-1
			],
			"max":[21
			]
		},
		{
			"bufferView":10,
			"componentType":5126,
			"count":25106,
			"type":"SCALAR",
			"min":[0
			],
			"max":[1
			]
		},
		{
			"bufferView":11,
			"componentType":5126,
			"count":25106,
			"type":"SCALAR",
			"min":[0
			],
			"max":[1
			]
		},
		{
			"bufferView":12,
			"componentType":5126,
			"count":25106,
			"type":"SCALAR",
			"min":[0
			],
			"max":[1
			]
		},
		{
			"bufferView":13,
			"componentType":5126,
			"count":25106,
			"type":"SCALAR",
			"min":[0
			],
			"max":[0.842337191
			]
		},
		{
			"bufferView":14,
			"componentType":5126,
			"count":25106,
			"type":"SCALAR",
			"min":[-0.332166821
			],
			"max":[0.582436323
			]
		},
		{
			"bufferView":15,
			"componentType":5126,
			"count":25106,
			"type":"SCALAR",
			"min":[0
			],
			"max":[1
			]
		},
		{
			"bufferView":16,
			"componentType":5126,
			"count":25106,
			"type":"SCALAR",
			"min":[0
			],
			"max":[15.9279442
			]
		},
		{
			"bufferView":17,
			"componentType":5125,
			"count":25106,
			"type":"SCALAR",
			"min":[0
			],
			"max":[0
			]
		},
		{
			"bufferView":18,
			"componentType":5126,
			"count":25106,
			"type":"SCALAR",
			"min":[0
			],
			"max":[0.864916027
			]
		},
		{
			"bufferView":19,
			"componentType":5125,
			"count":25106,
			"type":"SCALAR",
			"min":[0
			],
			"max":[1
			]
		},
		{
			"bufferView":20,
			"componentType":5125,
			"count":25106,
			"type":"SCALAR",
			"min":[-1
			],
			"max":[12
			]
		},
		{
			"bufferView":21,
			"componentType":5125,
			"count":25106,
			"type":"SCALAR",
			"min":[-1
			],
			"max":[19
			]
		},
		{
			"bufferView":22,
			"componentType":5126,
			"count":25106,
			"type":"SCALAR",
			"min":[0
			],
			"max":[148
			]
		}
	],
	"buffers":[
		{
			"uri":"mesh_bdg_F_08_data.bin",
			"byteLength":3274068,
			"name":"main_buffer"
		}
	],
	"bufferViews":[
		{
			"buffer":0,
			"byteLength":60498,
			"target":34963
		},
		{
			"buffer":0,
			"byteOffset":60500,
			"byteLength":301272,
			"target":34962
		},
		{
			"buffer":0,
			"byteOffset":361772,
			"byteLength":100424,
			"target":34962
		},
		{
			"buffer":0,
			"byteOffset":462196,
			"byteLength":100424,
			"target":34962
		},
		{
			"buffer":0,
			"byteOffset":562620,
			"byteLength":301272,
			"target":34962
		},
		{
			"buffer":0,
			"byteOffset":863892,
			"byteLength":100424,
			"target":34962
		},
		{
			"buffer":0,
			"byteOffset":964316,
			"byteLength":401696,
			"target":34962
		},
		{
			"buffer":0,
			"byteOffset":1366012,
			"byteLength":200848,
			"target":34962
		},
		{
			"buffer":0,
			"byteOffset":1566860,
			"byteLength":301272,
			"target":34962
		},
		{
			"buffer":0,
			"byteOffset":1868132,
			"byteLength":100424,
			"target":34962
		},
		{
			"buffer":0,
			"byteOffset":1968556,
			"byteLength":100424,
			"target":34962
		},
		{
			"buffer":0,
			"byteOffset":2068980,
			"byteLength":100424,
			"target":34962
		},
		{
			"buffer":0,
			"byteOffset":2169404,
			"byteLength":100424,
			"target":34962
		},
		{
			"buffer":0,
			"byteOffset":2269828,
			"byteLength":100424,
			"target":34962
		},
		{
			"buffer":0,
			"byteOffset":2370252,
			"byteLength":100424,
			"target":34962
		},
		{
			"buffer":0,
			"byteOffset":2470676,
			"byteLength":100424,
			"target":34962
		},
		{
			"buffer":0,
			"byteOffset":2571100,
			"byteLength":100424,
			"target":34962
		},
		{
			"buffer":0,
			"byteOffset":2671524,
			"byteLength":100424,
			"target":34962
		},
		{
			"buffer":0,
			"byteOffset":2771948,
			"byteLength":100424,
			"target":34962
		},
		{
			"buffer":0,
			"byteOffset":2872372,
			"byteLength":100424,
			"target":34962
		},
		{
			"buffer":0,
			"byteOffset":2972796,
			"byteLength":100424,
			"target":34962
		},
		{
			"buffer":0,
			"byteOffset":3073220,
			"byteLength":100424,
			"target":34962
		},
		{
			"buffer":0,
			"byteOffset":3173644,
			"byteLength":100424,
			"target":34962
		}
	],
	"nodes":[
		{
			"name":"geo1",
			"mesh":0
		}
	],
	"meshes":[
		{
			"primitives":[
				{
					"attributes":{
						"_cluster":22,
						"_shadowmask":11,
						"_exposure":10,
						"TANGENT":6,
						"TEXCOORD_0":7,
						"POSITION":1,
						"_zscale":18,
						"_cut_edge":17,
						"NORMAL":4,
						"_furn":9,
						"_window_prim":13,
						"_Alpha":5,
						"_class":21,
						"_isCurve":19,
						"_mask":15,
						"_del":14,
						"COLOR_0":8,
						"_intbby":12,
						"_curvature":2,
						"_restlength":16,
						"_furn2":20,
						"_ao":3
					},
					"indices":0,
					"material":0
				}
			],
			"name":"material2"
		}
	],
	"materials":[
		{
			"name":"unlit",
			"pbrMetallicRoughness":{
				"baseColorFactor":[0.200000003,0.200000003,0.200000003,1
				],
				"metallicFactor":0,
				"roughnessFactor":0.300000012
			}
		}
	],
	"scenes":[
		{
			"nodes":[0
			]
		}
	],
	"scene":0
}
