{
	"asset":{
		"version":"2.0",
		"generator":"Houdini GLTF 2.0 Exporter"
	},
	"accessors":[
		{
			"bufferView":0,
			"componentType":5125,
			"count":41487,
			"type":"SCALAR",
			"min":[0
			],
			"max":[35086
			]
		},
		{
			"bufferView":1,
			"componentType":5126,
			"count":35087,
			"type":"VEC3",
			"min":[-0.671536088,-9.08213425,-0.173538655
			],
			"max":[11.6622438,6.44999981,8.17514896
			]
		},
		{
			"bufferView":2,
			"componentType":5126,
			"count":35087,
			"type":"SCALAR",
			"min":[-1.57079673
			],
			"max":[6.28318548
			]
		},
		{
			"bufferView":3,
			"componentType":5126,
			"count":35087,
			"type":"SCALAR",
			"min":[0
			],
			"max":[1
			]
		},
		{
			"bufferView":4,
			"componentType":5126,
			"count":35087,
			"type":"VEC3",
			"min":[-1,-1,-1
			],
			"max":[0.0902035311,1,1
			]
		},
		{
			"bufferView":5,
			"componentType":5126,
			"count":35087,
			"type":"SCALAR",
			"min":[1
			],
			"max":[1
			]
		},
		{
			"bufferView":6,
			"componentType":5126,
			"count":35087,
			"type":"VEC4",
			"min":[-1,-0.937625885,-1,1
			],
			"max":[1,0.894427478,1,1
			]
		},
		{
			"bufferView":7,
			"componentType":5126,
			"count":35087,
			"type":"SCALAR",
			"min":[0
			],
			"max":[0.850867569
			]
		},
		{
			"bufferView":8,
			"componentType":5126,
			"count":35087,
			"type":"SCALAR",
			"min":[0
			],
			"max":[1
			]
		},
		{
			"bufferView":9,
			"componentType":5126,
			"count":35087,
			"type":"VEC2",
			"min":[0,0.0185239315
			],
			"max":[0.980973423,1
			]
		},
		{
			"bufferView":10,
			"componentType":5126,
			"count":35087,
			"type":"VEC3",
			"min":[0.120204002,0.124036789,0.0160540026
			],
			"max":[1,0.903317988,0.654000044
			]
		},
		{
			"bufferView":11,
			"componentType":5126,
			"count":35087,
			"type":"SCALAR",
			"min":[-0.328008741
			],
			"max":[0.440879077
			]
		},
		{
			"bufferView":12,
			"componentType":5125,
			"count":35087,
			"type":"SCALAR",
			"min":[0
			],
			"max":[1
			]
		},
		{
			"bufferView":13,
			"componentType":5125,
			"count":35087,
			"type":"SCALAR",
			"min":[-1
			],
			"max":[3
			]
		},
		{
			"bufferView":14,
			"componentType":5126,
			"count":35087,
			"type":"SCALAR",
			"min":[0
			],
			"max":[16.7990417
			]
		}
	],
	"buffers":[
		{
			"uri":"mesh_bdg_L_08_data.bin",
			"byteLength":3534300,
			"name":"main_buffer"
		}
	],
	"bufferViews":[
		{
			"buffer":0,
			"byteLength":165948,
			"target":34963
		},
		{
			"buffer":0,
			"byteOffset":165948,
			"byteLength":421044,
			"target":34962
		},
		{
			"buffer":0,
			"byteOffset":586992,
			"byteLength":140348,
			"target":34962
		},
		{
			"buffer":0,
			"byteOffset":727340,
			"byteLength":140348,
			"target":34962
		},
		{
			"buffer":0,
			"byteOffset":867688,
			"byteLength":421044,
			"target":34962
		},
		{
			"buffer":0,
			"byteOffset":1288732,
			"byteLength":140348,
			"target":34962
		},
		{
			"buffer":0,
			"byteOffset":1429080,
			"byteLength":561392,
			"target":34962
		},
		{
			"buffer":0,
			"byteOffset":1990472,
			"byteLength":140348,
			"target":34962
		},
		{
			"buffer":0,
			"byteOffset":2130820,
			"byteLength":140348,
			"target":34962
		},
		{
			"buffer":0,
			"byteOffset":2271168,
			"byteLength":280696,
			"target":34962
		},
		{
			"buffer":0,
			"byteOffset":2551864,
			"byteLength":421044,
			"target":34962
		},
		{
			"buffer":0,
			"byteOffset":2972908,
			"byteLength":140348,
			"target":34962
		},
		{
			"buffer":0,
			"byteOffset":3113256,
			"byteLength":140348,
			"target":34962
		},
		{
			"buffer":0,
			"byteOffset":3253604,
			"byteLength":140348,
			"target":34962
		},
		{
			"buffer":0,
			"byteOffset":3393952,
			"byteLength":140348,
			"target":34962
		}
	],
	"nodes":[
		{
			"name":"geo1",
			"mesh":0
		}
	],
	"meshes":[
		{
			"primitives":[
				{
					"attributes":{
						"_shadowmask":7,
						"_exposure":8,
						"TANGENT":6,
						"TEXCOORD_0":9,
						"POSITION":1,
						"NORMAL":4,
						"_Alpha":5,
						"_class":13,
						"_isCurve":12,
						"_del":11,
						"COLOR_0":10,
						"_curvature":2,
						"_restlength":14,
						"_ao":3
					},
					"indices":0,
					"material":0
				}
			],
			"name":"material5"
		}
	],
	"materials":[
		{
			"name":"unlit",
			"pbrMetallicRoughness":{
				"baseColorFactor":[0.200000003,0.200000003,0.200000003,1
				],
				"metallicFactor":0,
				"roughnessFactor":0.300000012
			}
		}
	],
	"scenes":[
		{
			"nodes":[0
			]
		}
	],
	"scene":0
}
