{
	"asset":{
		"version":"2.0",
		"generator":"Houdini GLTF 2.0 Exporter"
	},
	"accessors":[
		{
			"bufferView":0,
			"componentType":5125,
			"count":45519,
			"type":"SCALAR",
			"min":[0
			],
			"max":[38306
			]
		},
		{
			"bufferView":1,
			"componentType":5126,
			"count":38307,
			"type":"VEC3",
			"min":[-2.67072487,-15,-0.147675171
			],
			"max":[9.64767551,0.449999988,10.1476755
			]
		},
		{
			"bufferView":2,
			"componentType":5126,
			"count":38307,
			"type":"SCALAR",
			"min":[-1.57079661
			],
			"max":[6.28318548
			]
		},
		{
			"bufferView":3,
			"componentType":5126,
			"count":38307,
			"type":"SCALAR",
			"min":[0
			],
			"max":[1
			]
		},
		{
			"bufferView":4,
			"componentType":5126,
			"count":38307,
			"type":"VEC3",
			"min":[-1,-1,-1
			],
			"max":[1,1,1
			]
		},
		{
			"bufferView":5,
			"componentType":5126,
			"count":38307,
			"type":"SCALAR",
			"min":[1
			],
			"max":[1
			]
		},
		{
			"bufferView":6,
			"componentType":5126,
			"count":38307,
			"type":"VEC4",
			"min":[-1,-0.894427359,-1,1
			],
			"max":[1,0.90562439,1,1
			]
		},
		{
			"bufferView":7,
			"componentType":5126,
			"count":38307,
			"type":"SCALAR",
			"min":[0
			],
			"max":[0.877453625
			]
		},
		{
			"bufferView":8,
			"componentType":5126,
			"count":38307,
			"type":"SCALAR",
			"min":[0
			],
			"max":[1
			]
		},
		{
			"bufferView":9,
			"componentType":5126,
			"count":38307,
			"type":"VEC2",
			"min":[0,0.0180147886
			],
			"max":[0.981528878,1
			]
		},
		{
			"bufferView":10,
			"componentType":5126,
			"count":38307,
			"type":"VEC3",
			"min":[0.120204002,0.124036789,0.0160540026
			],
			"max":[1,0.903317988,0.653999984
			]
		},
		{
			"bufferView":11,
			"componentType":5126,
			"count":38307,
			"type":"SCALAR",
			"min":[-0.327517152
			],
			"max":[0.460717916
			]
		},
		{
			"bufferView":12,
			"componentType":5125,
			"count":38307,
			"type":"SCALAR",
			"min":[0
			],
			"max":[1
			]
		},
		{
			"bufferView":13,
			"componentType":5125,
			"count":38307,
			"type":"SCALAR",
			"min":[-1
			],
			"max":[3
			]
		},
		{
			"bufferView":14,
			"componentType":5126,
			"count":38307,
			"type":"SCALAR",
			"min":[0
			],
			"max":[12.1357164
			]
		}
	],
	"buffers":[
		{
			"uri":"mesh_bdg_F_08_data.bin",
			"byteLength":3859548,
			"name":"main_buffer"
		}
	],
	"bufferViews":[
		{
			"buffer":0,
			"byteLength":182076,
			"target":34963
		},
		{
			"buffer":0,
			"byteOffset":182076,
			"byteLength":459684,
			"target":34962
		},
		{
			"buffer":0,
			"byteOffset":641760,
			"byteLength":153228,
			"target":34962
		},
		{
			"buffer":0,
			"byteOffset":794988,
			"byteLength":153228,
			"target":34962
		},
		{
			"buffer":0,
			"byteOffset":948216,
			"byteLength":459684,
			"target":34962
		},
		{
			"buffer":0,
			"byteOffset":1407900,
			"byteLength":153228,
			"target":34962
		},
		{
			"buffer":0,
			"byteOffset":1561128,
			"byteLength":612912,
			"target":34962
		},
		{
			"buffer":0,
			"byteOffset":2174040,
			"byteLength":153228,
			"target":34962
		},
		{
			"buffer":0,
			"byteOffset":2327268,
			"byteLength":153228,
			"target":34962
		},
		{
			"buffer":0,
			"byteOffset":2480496,
			"byteLength":306456,
			"target":34962
		},
		{
			"buffer":0,
			"byteOffset":2786952,
			"byteLength":459684,
			"target":34962
		},
		{
			"buffer":0,
			"byteOffset":3246636,
			"byteLength":153228,
			"target":34962
		},
		{
			"buffer":0,
			"byteOffset":3399864,
			"byteLength":153228,
			"target":34962
		},
		{
			"buffer":0,
			"byteOffset":3553092,
			"byteLength":153228,
			"target":34962
		},
		{
			"buffer":0,
			"byteOffset":3706320,
			"byteLength":153228,
			"target":34962
		}
	],
	"nodes":[
		{
			"name":"geo1",
			"mesh":0
		}
	],
	"meshes":[
		{
			"primitives":[
				{
					"attributes":{
						"_shadowmask":7,
						"_exposure":8,
						"TANGENT":6,
						"TEXCOORD_0":9,
						"POSITION":1,
						"NORMAL":4,
						"_Alpha":5,
						"_class":13,
						"_isCurve":12,
						"_del":11,
						"COLOR_0":10,
						"_curvature":2,
						"_restlength":14,
						"_ao":3
					},
					"indices":0,
					"material":0
				}
			],
			"name":"material2"
		}
	],
	"materials":[
		{
			"name":"unlit",
			"pbrMetallicRoughness":{
				"baseColorFactor":[0.200000003,0.200000003,0.200000003,1
				],
				"metallicFactor":0,
				"roughnessFactor":0.300000012
			}
		}
	],
	"scenes":[
		{
			"nodes":[0
			]
		}
	],
	"scene":0
}
