{
	"asset":{
		"version":"2.0",
		"generator":"Houdini GLTF 2.0 Exporter"
	},
	"accessors":[
		{
			"bufferView":0,
			"componentType":5125,
			"count":84147,
			"type":"SCALAR",
			"min":[0
			],
			"max":[72413
			]
		},
		{
			"bufferView":1,
			"componentType":5126,
			"count":72414,
			"type":"VEC3",
			"min":[-0.632200181,-9.00000095,-0.120504573
			],
			"max":[16.5639057,6.44999886,15.1322298
			]
		},
		{
			"bufferView":2,
			"componentType":5126,
			"count":72414,
			"type":"SCALAR",
			"min":[-6.28318596
			],
			"max":[6.28318548
			]
		},
		{
			"bufferView":3,
			"componentType":5126,
			"count":72414,
			"type":"SCALAR",
			"min":[0
			],
			"max":[1
			]
		},
		{
			"bufferView":4,
			"componentType":5126,
			"count":72414,
			"type":"VEC3",
			"min":[-1,-1,-1
			],
			"max":[1,1,1
			]
		},
		{
			"bufferView":5,
			"componentType":5126,
			"count":72414,
			"type":"SCALAR",
			"min":[1
			],
			"max":[1
			]
		},
		{
			"bufferView":6,
			"componentType":5126,
			"count":72414,
			"type":"VEC4",
			"min":[-1,-1,-1,1
			],
			"max":[1,0.99999994,1,1
			]
		},
		{
			"bufferView":7,
			"componentType":5126,
			"count":72414,
			"type":"SCALAR",
			"min":[0
			],
			"max":[0.756507099
			]
		},
		{
			"bufferView":8,
			"componentType":5126,
			"count":72414,
			"type":"SCALAR",
			"min":[0
			],
			"max":[1
			]
		},
		{
			"bufferView":9,
			"componentType":5126,
			"count":72414,
			"type":"VEC2",
			"min":[0,0.014154017
			],
			"max":[0.971682608,1
			]
		},
		{
			"bufferView":10,
			"componentType":5126,
			"count":72414,
			"type":"VEC3",
			"min":[0.120204002,0.111846134,0.0160540026
			],
			"max":[1,0.903317988,0.654000044
			]
		},
		{
			"bufferView":11,
			"componentType":5126,
			"count":72414,
			"type":"SCALAR",
			"min":[-0.326897591
			],
			"max":[0.46538797
			]
		},
		{
			"bufferView":12,
			"componentType":5125,
			"count":72414,
			"type":"SCALAR",
			"min":[0
			],
			"max":[1
			]
		},
		{
			"bufferView":13,
			"componentType":5125,
			"count":72414,
			"type":"SCALAR",
			"min":[-1
			],
			"max":[3
			]
		},
		{
			"bufferView":14,
			"componentType":5126,
			"count":72414,
			"type":"SCALAR",
			"min":[0
			],
			"max":[11.5735617
			]
		}
	],
	"buffers":[
		{
			"uri":"mesh_bdg_J_12_data.bin",
			"byteLength":7288332,
			"name":"main_buffer"
		}
	],
	"bufferViews":[
		{
			"buffer":0,
			"byteLength":336588,
			"target":34963
		},
		{
			"buffer":0,
			"byteOffset":336588,
			"byteLength":868968,
			"target":34962
		},
		{
			"buffer":0,
			"byteOffset":1205556,
			"byteLength":289656,
			"target":34962
		},
		{
			"buffer":0,
			"byteOffset":1495212,
			"byteLength":289656,
			"target":34962
		},
		{
			"buffer":0,
			"byteOffset":1784868,
			"byteLength":868968,
			"target":34962
		},
		{
			"buffer":0,
			"byteOffset":2653836,
			"byteLength":289656,
			"target":34962
		},
		{
			"buffer":0,
			"byteOffset":2943492,
			"byteLength":1158624,
			"target":34962
		},
		{
			"buffer":0,
			"byteOffset":4102116,
			"byteLength":289656,
			"target":34962
		},
		{
			"buffer":0,
			"byteOffset":4391772,
			"byteLength":289656,
			"target":34962
		},
		{
			"buffer":0,
			"byteOffset":4681428,
			"byteLength":579312,
			"target":34962
		},
		{
			"buffer":0,
			"byteOffset":5260740,
			"byteLength":868968,
			"target":34962
		},
		{
			"buffer":0,
			"byteOffset":6129708,
			"byteLength":289656,
			"target":34962
		},
		{
			"buffer":0,
			"byteOffset":6419364,
			"byteLength":289656,
			"target":34962
		},
		{
			"buffer":0,
			"byteOffset":6709020,
			"byteLength":289656,
			"target":34962
		},
		{
			"buffer":0,
			"byteOffset":6998676,
			"byteLength":289656,
			"target":34962
		}
	],
	"nodes":[
		{
			"name":"geo1",
			"mesh":0
		}
	],
	"meshes":[
		{
			"primitives":[
				{
					"attributes":{
						"_shadowmask":7,
						"_exposure":8,
						"TANGENT":6,
						"TEXCOORD_0":9,
						"POSITION":1,
						"NORMAL":4,
						"_Alpha":5,
						"_class":13,
						"_isCurve":12,
						"_del":11,
						"COLOR_0":10,
						"_curvature":2,
						"_restlength":14,
						"_ao":3
					},
					"indices":0,
					"material":0
				}
			],
			"name":"material12"
		}
	],
	"materials":[
		{
			"name":"unlit",
			"pbrMetallicRoughness":{
				"baseColorFactor":[0.200000003,0.200000003,0.200000003,1
				],
				"metallicFactor":0,
				"roughnessFactor":0.300000012
			}
		}
	],
	"scenes":[
		{
			"nodes":[0
			]
		}
	],
	"scene":0
}
