{
	"asset":{
		"version":"2.0",
		"generator":"Houdini GLTF 2.0 Exporter"
	},
	"accessors":[
		{
			"bufferView":0,
			"componentType":5123,
			"count":26100,
			"type":"SCALAR",
			"min":[0
			],
			"max":[21943
			]
		},
		{
			"bufferView":1,
			"componentType":5126,
			"count":21944,
			"type":"VEC3",
			"min":[-2.66012621,-15,-0.180082604
			],
			"max":[3.66863132,0.449999988,4.1803422
			]
		},
		{
			"bufferView":2,
			"componentType":5126,
			"count":21944,
			"type":"SCALAR",
			"min":[-1.57079661
			],
			"max":[6.28318548
			]
		},
		{
			"bufferView":3,
			"componentType":5126,
			"count":21944,
			"type":"SCALAR",
			"min":[0
			],
			"max":[1
			]
		},
		{
			"bufferView":4,
			"componentType":5126,
			"count":21944,
			"type":"VEC3",
			"min":[-1,-1,-1
			],
			"max":[0.0809400305,1,1
			]
		},
		{
			"bufferView":5,
			"componentType":5126,
			"count":21944,
			"type":"SCALAR",
			"min":[1
			],
			"max":[1
			]
		},
		{
			"bufferView":6,
			"componentType":5126,
			"count":21944,
			"type":"VEC4",
			"min":[-1,-0.901171923,-1,1
			],
			"max":[1,0.894427299,1,1
			]
		},
		{
			"bufferView":7,
			"componentType":5126,
			"count":21944,
			"type":"SCALAR",
			"min":[0
			],
			"max":[0.667301714
			]
		},
		{
			"bufferView":8,
			"componentType":5126,
			"count":21944,
			"type":"SCALAR",
			"min":[0
			],
			"max":[1
			]
		},
		{
			"bufferView":9,
			"componentType":5126,
			"count":21944,
			"type":"VEC2",
			"min":[0,0.0188626647
			],
			"max":[0.962496161,1
			]
		},
		{
			"bufferView":10,
			"componentType":5126,
			"count":21944,
			"type":"VEC3",
			"min":[0.120204002,0.124036789,0.0160540026
			],
			"max":[1,0.903317988,0.654000044
			]
		},
		{
			"bufferView":11,
			"componentType":5126,
			"count":21944,
			"type":"SCALAR",
			"min":[-0.32919091
			],
			"max":[0.344785333
			]
		},
		{
			"bufferView":12,
			"componentType":5125,
			"count":21944,
			"type":"SCALAR",
			"min":[0
			],
			"max":[1
			]
		},
		{
			"bufferView":13,
			"componentType":5125,
			"count":21944,
			"type":"SCALAR",
			"min":[-1
			],
			"max":[1
			]
		},
		{
			"bufferView":14,
			"componentType":5126,
			"count":21944,
			"type":"SCALAR",
			"min":[0
			],
			"max":[14.8378592
			]
		}
	],
	"buffers":[
		{
			"uri":"mesh_bdg_K_04_data.bin",
			"byteLength":2158824,
			"name":"main_buffer"
		}
	],
	"bufferViews":[
		{
			"buffer":0,
			"byteLength":52200,
			"target":34963
		},
		{
			"buffer":0,
			"byteOffset":52200,
			"byteLength":263328,
			"target":34962
		},
		{
			"buffer":0,
			"byteOffset":315528,
			"byteLength":87776,
			"target":34962
		},
		{
			"buffer":0,
			"byteOffset":403304,
			"byteLength":87776,
			"target":34962
		},
		{
			"buffer":0,
			"byteOffset":491080,
			"byteLength":263328,
			"target":34962
		},
		{
			"buffer":0,
			"byteOffset":754408,
			"byteLength":87776,
			"target":34962
		},
		{
			"buffer":0,
			"byteOffset":842184,
			"byteLength":351104,
			"target":34962
		},
		{
			"buffer":0,
			"byteOffset":1193288,
			"byteLength":87776,
			"target":34962
		},
		{
			"buffer":0,
			"byteOffset":1281064,
			"byteLength":87776,
			"target":34962
		},
		{
			"buffer":0,
			"byteOffset":1368840,
			"byteLength":175552,
			"target":34962
		},
		{
			"buffer":0,
			"byteOffset":1544392,
			"byteLength":263328,
			"target":34962
		},
		{
			"buffer":0,
			"byteOffset":1807720,
			"byteLength":87776,
			"target":34962
		},
		{
			"buffer":0,
			"byteOffset":1895496,
			"byteLength":87776,
			"target":34962
		},
		{
			"buffer":0,
			"byteOffset":1983272,
			"byteLength":87776,
			"target":34962
		},
		{
			"buffer":0,
			"byteOffset":2071048,
			"byteLength":87776,
			"target":34962
		}
	],
	"nodes":[
		{
			"name":"geo1",
			"mesh":0
		}
	],
	"meshes":[
		{
			"primitives":[
				{
					"attributes":{
						"_shadowmask":7,
						"_exposure":8,
						"TANGENT":6,
						"TEXCOORD_0":9,
						"POSITION":1,
						"NORMAL":4,
						"_Alpha":5,
						"_class":13,
						"_isCurve":12,
						"_del":11,
						"COLOR_0":10,
						"_curvature":2,
						"_restlength":14,
						"_ao":3
					},
					"indices":0,
					"material":0
				}
			],
			"name":"material4"
		}
	],
	"materials":[
		{
			"name":"unlit",
			"pbrMetallicRoughness":{
				"baseColorFactor":[0.200000003,0.200000003,0.200000003,1
				],
				"metallicFactor":0,
				"roughnessFactor":0.300000012
			}
		}
	],
	"scenes":[
		{
			"nodes":[0
			]
		}
	],
	"scene":0
}
