{
	"asset":{
		"version":"2.0",
		"generator":"Houdini GLTF 2.0 Exporter"
	},
	"accessors":[
		{
			"bufferView":0,
			"componentType":5125,
			"count":45621,
			"type":"SCALAR",
			"min":[0
			],
			"max":[38141
			]
		},
		{
			"bufferView":1,
			"componentType":5126,
			"count":38142,
			"type":"VEC3",
			"min":[-4.66121578,-24,-0.16258654
			],
			"max":[13.6450624,6.44999981,14.1623287
			]
		},
		{
			"bufferView":2,
			"componentType":5126,
			"count":38142,
			"type":"SCALAR",
			"min":[-1.57079661
			],
			"max":[6.28318548
			]
		},
		{
			"bufferView":3,
			"componentType":5126,
			"count":38142,
			"type":"SCALAR",
			"min":[0
			],
			"max":[1
			]
		},
		{
			"bufferView":4,
			"componentType":5126,
			"count":38142,
			"type":"VEC3",
			"min":[-1,-1,-1
			],
			"max":[0.0803022608,1,1
			]
		},
		{
			"bufferView":5,
			"componentType":5126,
			"count":38142,
			"type":"SCALAR",
			"min":[1
			],
			"max":[1
			]
		},
		{
			"bufferView":6,
			"componentType":5126,
			"count":38142,
			"type":"VEC4",
			"min":[-1,-0.894427478,-0.733656943,1
			],
			"max":[1,0.89442718,1,1
			]
		},
		{
			"bufferView":7,
			"componentType":5126,
			"count":38142,
			"type":"VEC2",
			"min":[0,0.0154811144
			],
			"max":[0.969018936,1
			]
		},
		{
			"bufferView":8,
			"componentType":5126,
			"count":38142,
			"type":"VEC3",
			"min":[0.0551819988,0.0575229004,0.0160540026
			],
			"max":[1,0.779268742,0.999379575
			]
		},
		{
			"bufferView":9,
			"componentType":5125,
			"count":38142,
			"type":"SCALAR",
			"min":[-1
			],
			"max":[13
			]
		},
		{
			"bufferView":10,
			"componentType":5126,
			"count":38142,
			"type":"SCALAR",
			"min":[0
			],
			"max":[1
			]
		},
		{
			"bufferView":11,
			"componentType":5126,
			"count":38142,
			"type":"SCALAR",
			"min":[0
			],
			"max":[1
			]
		},
		{
			"bufferView":12,
			"componentType":5126,
			"count":38142,
			"type":"SCALAR",
			"min":[0
			],
			"max":[1
			]
		},
		{
			"bufferView":13,
			"componentType":5126,
			"count":38142,
			"type":"SCALAR",
			"min":[0
			],
			"max":[0.842325687
			]
		},
		{
			"bufferView":14,
			"componentType":5126,
			"count":38142,
			"type":"SCALAR",
			"min":[-0.331662983
			],
			"max":[0.541907847
			]
		},
		{
			"bufferView":15,
			"componentType":5126,
			"count":38142,
			"type":"SCALAR",
			"min":[0
			],
			"max":[1
			]
		},
		{
			"bufferView":16,
			"componentType":5126,
			"count":38142,
			"type":"SCALAR",
			"min":[0
			],
			"max":[15.909914
			]
		},
		{
			"bufferView":17,
			"componentType":5125,
			"count":38142,
			"type":"SCALAR",
			"min":[0
			],
			"max":[0
			]
		},
		{
			"bufferView":18,
			"componentType":5126,
			"count":38142,
			"type":"SCALAR",
			"min":[0
			],
			"max":[0.633199036
			]
		},
		{
			"bufferView":19,
			"componentType":5125,
			"count":38142,
			"type":"SCALAR",
			"min":[0
			],
			"max":[1
			]
		},
		{
			"bufferView":20,
			"componentType":5125,
			"count":38142,
			"type":"SCALAR",
			"min":[-1
			],
			"max":[7
			]
		},
		{
			"bufferView":21,
			"componentType":5125,
			"count":38142,
			"type":"SCALAR",
			"min":[-1
			],
			"max":[19
			]
		},
		{
			"bufferView":22,
			"componentType":5126,
			"count":38142,
			"type":"SCALAR",
			"min":[0
			],
			"max":[78
			]
		}
	],
	"buffers":[
		{
			"uri":"mesh_bdg_H_14_data.bin",
			"byteLength":5064660,
			"name":"main_buffer"
		}
	],
	"bufferViews":[
		{
			"buffer":0,
			"byteLength":182484,
			"target":34963
		},
		{
			"buffer":0,
			"byteOffset":182484,
			"byteLength":457704,
			"target":34962
		},
		{
			"buffer":0,
			"byteOffset":640188,
			"byteLength":152568,
			"target":34962
		},
		{
			"buffer":0,
			"byteOffset":792756,
			"byteLength":152568,
			"target":34962
		},
		{
			"buffer":0,
			"byteOffset":945324,
			"byteLength":457704,
			"target":34962
		},
		{
			"buffer":0,
			"byteOffset":1403028,
			"byteLength":152568,
			"target":34962
		},
		{
			"buffer":0,
			"byteOffset":1555596,
			"byteLength":610272,
			"target":34962
		},
		{
			"buffer":0,
			"byteOffset":2165868,
			"byteLength":305136,
			"target":34962
		},
		{
			"buffer":0,
			"byteOffset":2471004,
			"byteLength":457704,
			"target":34962
		},
		{
			"buffer":0,
			"byteOffset":2928708,
			"byteLength":152568,
			"target":34962
		},
		{
			"buffer":0,
			"byteOffset":3081276,
			"byteLength":152568,
			"target":34962
		},
		{
			"buffer":0,
			"byteOffset":3233844,
			"byteLength":152568,
			"target":34962
		},
		{
			"buffer":0,
			"byteOffset":3386412,
			"byteLength":152568,
			"target":34962
		},
		{
			"buffer":0,
			"byteOffset":3538980,
			"byteLength":152568,
			"target":34962
		},
		{
			"buffer":0,
			"byteOffset":3691548,
			"byteLength":152568,
			"target":34962
		},
		{
			"buffer":0,
			"byteOffset":3844116,
			"byteLength":152568,
			"target":34962
		},
		{
			"buffer":0,
			"byteOffset":3996684,
			"byteLength":152568,
			"target":34962
		},
		{
			"buffer":0,
			"byteOffset":4149252,
			"byteLength":152568,
			"target":34962
		},
		{
			"buffer":0,
			"byteOffset":4301820,
			"byteLength":152568,
			"target":34962
		},
		{
			"buffer":0,
			"byteOffset":4454388,
			"byteLength":152568,
			"target":34962
		},
		{
			"buffer":0,
			"byteOffset":4606956,
			"byteLength":152568,
			"target":34962
		},
		{
			"buffer":0,
			"byteOffset":4759524,
			"byteLength":152568,
			"target":34962
		},
		{
			"buffer":0,
			"byteOffset":4912092,
			"byteLength":152568,
			"target":34962
		}
	],
	"nodes":[
		{
			"name":"geo1",
			"mesh":0
		}
	],
	"meshes":[
		{
			"primitives":[
				{
					"attributes":{
						"_cluster":22,
						"_shadowmask":11,
						"_exposure":10,
						"TANGENT":6,
						"TEXCOORD_0":7,
						"POSITION":1,
						"_zscale":18,
						"_cut_edge":17,
						"NORMAL":4,
						"_furn":9,
						"_window_prim":13,
						"_Alpha":5,
						"_class":21,
						"_isCurve":19,
						"_mask":15,
						"_del":14,
						"COLOR_0":8,
						"_intbby":12,
						"_curvature":2,
						"_restlength":16,
						"_furn2":20,
						"_ao":3
					},
					"indices":0,
					"material":0
				}
			],
			"name":"material11"
		}
	],
	"materials":[
		{
			"name":"unlit",
			"pbrMetallicRoughness":{
				"baseColorFactor":[0.200000003,0.200000003,0.200000003,1
				],
				"metallicFactor":0,
				"roughnessFactor":0.300000012
			}
		}
	],
	"scenes":[
		{
			"nodes":[0
			]
		}
	],
	"scene":0
}
