{
	"asset":{
		"version":"2.0",
		"generator":"Houdini GLTF 2.0 Exporter"
	},
	"accessors":[
		{
			"bufferView":0,
			"componentType":5125,
			"count":35724,
			"type":"SCALAR",
			"min":[0
			],
			"max":[30402
			]
		},
		{
			"bufferView":1,
			"componentType":5126,
			"count":30403,
			"type":"VEC3",
			"min":[-0.668908179,-12,-0.184226394
			],
			"max":[7.67121792,6.44999981,6.18324852
			]
		},
		{
			"bufferView":2,
			"componentType":5126,
			"count":30403,
			"type":"SCALAR",
			"min":[-1.57079661
			],
			"max":[6.28318548
			]
		},
		{
			"bufferView":3,
			"componentType":5126,
			"count":30403,
			"type":"SCALAR",
			"min":[0
			],
			"max":[1
			]
		},
		{
			"bufferView":4,
			"componentType":5126,
			"count":30403,
			"type":"VEC3",
			"min":[-1,-1,-1
			],
			"max":[1,1,1
			]
		},
		{
			"bufferView":5,
			"componentType":5126,
			"count":30403,
			"type":"SCALAR",
			"min":[1
			],
			"max":[1
			]
		},
		{
			"bufferView":6,
			"componentType":5126,
			"count":30403,
			"type":"VEC4",
			"min":[-1,-0.928942084,-0.968628168,1
			],
			"max":[1,0.952080071,1,1
			]
		},
		{
			"bufferView":7,
			"componentType":5126,
			"count":30403,
			"type":"SCALAR",
			"min":[0
			],
			"max":[0.793351352
			]
		},
		{
			"bufferView":8,
			"componentType":5126,
			"count":30403,
			"type":"SCALAR",
			"min":[0
			],
			"max":[1
			]
		},
		{
			"bufferView":9,
			"componentType":5126,
			"count":30403,
			"type":"VEC2",
			"min":[0,0.0172246099
			],
			"max":[0.965581536,1
			]
		},
		{
			"bufferView":10,
			"componentType":5126,
			"count":30403,
			"type":"VEC3",
			"min":[0.120204002,0.124036789,0.019838443
			],
			"max":[1,0.903317988,0.654000044
			]
		},
		{
			"bufferView":11,
			"componentType":5126,
			"count":30403,
			"type":"SCALAR",
			"min":[-0.326892346
			],
			"max":[0.457447499
			]
		},
		{
			"bufferView":12,
			"componentType":5125,
			"count":30403,
			"type":"SCALAR",
			"min":[0
			],
			"max":[1
			]
		},
		{
			"bufferView":13,
			"componentType":5125,
			"count":30403,
			"type":"SCALAR",
			"min":[-1
			],
			"max":[2
			]
		},
		{
			"bufferView":14,
			"componentType":5126,
			"count":30403,
			"type":"SCALAR",
			"min":[0
			],
			"max":[14.8108234
			]
		}
	],
	"buffers":[
		{
			"uri":"mesh_bdg_G_06_data.bin",
			"byteLength":3061584,
			"name":"main_buffer"
		}
	],
	"bufferViews":[
		{
			"buffer":0,
			"byteLength":142896,
			"target":34963
		},
		{
			"buffer":0,
			"byteOffset":142896,
			"byteLength":364836,
			"target":34962
		},
		{
			"buffer":0,
			"byteOffset":507732,
			"byteLength":121612,
			"target":34962
		},
		{
			"buffer":0,
			"byteOffset":629344,
			"byteLength":121612,
			"target":34962
		},
		{
			"buffer":0,
			"byteOffset":750956,
			"byteLength":364836,
			"target":34962
		},
		{
			"buffer":0,
			"byteOffset":1115792,
			"byteLength":121612,
			"target":34962
		},
		{
			"buffer":0,
			"byteOffset":1237404,
			"byteLength":486448,
			"target":34962
		},
		{
			"buffer":0,
			"byteOffset":1723852,
			"byteLength":121612,
			"target":34962
		},
		{
			"buffer":0,
			"byteOffset":1845464,
			"byteLength":121612,
			"target":34962
		},
		{
			"buffer":0,
			"byteOffset":1967076,
			"byteLength":243224,
			"target":34962
		},
		{
			"buffer":0,
			"byteOffset":2210300,
			"byteLength":364836,
			"target":34962
		},
		{
			"buffer":0,
			"byteOffset":2575136,
			"byteLength":121612,
			"target":34962
		},
		{
			"buffer":0,
			"byteOffset":2696748,
			"byteLength":121612,
			"target":34962
		},
		{
			"buffer":0,
			"byteOffset":2818360,
			"byteLength":121612,
			"target":34962
		},
		{
			"buffer":0,
			"byteOffset":2939972,
			"byteLength":121612,
			"target":34962
		}
	],
	"nodes":[
		{
			"name":"geo1",
			"mesh":0
		}
	],
	"meshes":[
		{
			"primitives":[
				{
					"attributes":{
						"_shadowmask":7,
						"_exposure":8,
						"TANGENT":6,
						"TEXCOORD_0":9,
						"POSITION":1,
						"NORMAL":4,
						"_Alpha":5,
						"_class":13,
						"_isCurve":12,
						"_del":11,
						"COLOR_0":10,
						"_curvature":2,
						"_restlength":14,
						"_ao":3
					},
					"indices":0,
					"material":0
				}
			],
			"name":"material3"
		}
	],
	"materials":[
		{
			"name":"unlit",
			"pbrMetallicRoughness":{
				"baseColorFactor":[0.200000003,0.200000003,0.200000003,1
				],
				"metallicFactor":0,
				"roughnessFactor":0.300000012
			}
		}
	],
	"scenes":[
		{
			"nodes":[0
			]
		}
	],
	"scene":0
}
