{
	"asset":{
		"version":"2.0",
		"generator":"Houdini GLTF 2.0 Exporter"
	},
	"accessors":[
		{
			"bufferView":0,
			"componentType":5125,
			"count":125958,
			"type":"SCALAR",
			"min":[0
			],
			"max":[107814
			]
		},
		{
			"bufferView":1,
			"componentType":5126,
			"count":107815,
			"type":"VEC3",
			"min":[-0.622796535,-12,-0.124939263
			],
			"max":[28.6176128,3.45000005,20.1208286
			]
		},
		{
			"bufferView":2,
			"componentType":5126,
			"count":107815,
			"type":"SCALAR",
			"min":[-6.28318548
			],
			"max":[6.28318548
			]
		},
		{
			"bufferView":3,
			"componentType":5126,
			"count":107815,
			"type":"SCALAR",
			"min":[0
			],
			"max":[1
			]
		},
		{
			"bufferView":4,
			"componentType":5126,
			"count":107815,
			"type":"VEC3",
			"min":[-1,-1,-1
			],
			"max":[1,1,1
			]
		},
		{
			"bufferView":5,
			"componentType":5126,
			"count":107815,
			"type":"SCALAR",
			"min":[1
			],
			"max":[1
			]
		},
		{
			"bufferView":6,
			"componentType":5126,
			"count":107815,
			"type":"VEC4",
			"min":[-1,-1,-1,1
			],
			"max":[1,1,1,1
			]
		},
		{
			"bufferView":7,
			"componentType":5126,
			"count":107815,
			"type":"SCALAR",
			"min":[0
			],
			"max":[0.973504901
			]
		},
		{
			"bufferView":8,
			"componentType":5126,
			"count":107815,
			"type":"SCALAR",
			"min":[0
			],
			"max":[1
			]
		},
		{
			"bufferView":9,
			"componentType":5126,
			"count":107815,
			"type":"VEC2",
			"min":[0,0.0106543899
			],
			"max":[0.978760123,1
			]
		},
		{
			"bufferView":10,
			"componentType":5126,
			"count":107815,
			"type":"VEC3",
			"min":[0,0,0
			],
			"max":[1.14698887,1.02711606,1
			]
		},
		{
			"bufferView":11,
			"componentType":5126,
			"count":107815,
			"type":"SCALAR",
			"min":[-0.329250604
			],
			"max":[0.382368177
			]
		},
		{
			"bufferView":12,
			"componentType":5125,
			"count":107815,
			"type":"SCALAR",
			"min":[0
			],
			"max":[1
			]
		},
		{
			"bufferView":13,
			"componentType":5125,
			"count":107815,
			"type":"SCALAR",
			"min":[-1
			],
			"max":[8
			]
		},
		{
			"bufferView":14,
			"componentType":5126,
			"count":107815,
			"type":"SCALAR",
			"min":[0
			],
			"max":[12.415309
			]
		}
	],
	"buffers":[
		{
			"uri":"mesh_bdg_J_16_data.bin",
			"byteLength":10854072,
			"name":"main_buffer"
		}
	],
	"bufferViews":[
		{
			"buffer":0,
			"byteLength":503832,
			"target":34963
		},
		{
			"buffer":0,
			"byteOffset":503832,
			"byteLength":1293780,
			"target":34962
		},
		{
			"buffer":0,
			"byteOffset":1797612,
			"byteLength":431260,
			"target":34962
		},
		{
			"buffer":0,
			"byteOffset":2228872,
			"byteLength":431260,
			"target":34962
		},
		{
			"buffer":0,
			"byteOffset":2660132,
			"byteLength":1293780,
			"target":34962
		},
		{
			"buffer":0,
			"byteOffset":3953912,
			"byteLength":431260,
			"target":34962
		},
		{
			"buffer":0,
			"byteOffset":4385172,
			"byteLength":1725040,
			"target":34962
		},
		{
			"buffer":0,
			"byteOffset":6110212,
			"byteLength":431260,
			"target":34962
		},
		{
			"buffer":0,
			"byteOffset":6541472,
			"byteLength":431260,
			"target":34962
		},
		{
			"buffer":0,
			"byteOffset":6972732,
			"byteLength":862520,
			"target":34962
		},
		{
			"buffer":0,
			"byteOffset":7835252,
			"byteLength":1293780,
			"target":34962
		},
		{
			"buffer":0,
			"byteOffset":9129032,
			"byteLength":431260,
			"target":34962
		},
		{
			"buffer":0,
			"byteOffset":9560292,
			"byteLength":431260,
			"target":34962
		},
		{
			"buffer":0,
			"byteOffset":9991552,
			"byteLength":431260,
			"target":34962
		},
		{
			"buffer":0,
			"byteOffset":10422812,
			"byteLength":431260,
			"target":34962
		}
	],
	"nodes":[
		{
			"name":"geo1",
			"mesh":0
		}
	],
	"meshes":[
		{
			"primitives":[
				{
					"attributes":{
						"_shadowmask":7,
						"_exposure":8,
						"TANGENT":6,
						"TEXCOORD_0":9,
						"POSITION":1,
						"NORMAL":4,
						"_Alpha":5,
						"_class":13,
						"_isCurve":12,
						"_del":11,
						"COLOR_0":10,
						"_curvature":2,
						"_restlength":14,
						"_ao":3
					},
					"indices":0,
					"material":0
				}
			],
			"name":"material13"
		}
	],
	"materials":[
		{
			"name":"unlit",
			"pbrMetallicRoughness":{
				"baseColorFactor":[0.200000003,0.200000003,0.200000003,1
				],
				"metallicFactor":0,
				"roughnessFactor":0.300000012
			}
		}
	],
	"scenes":[
		{
			"nodes":[0
			]
		}
	],
	"scene":0
}
