{
	"asset":{
		"version":"2.0",
		"generator":"Houdini GLTF 2.0 Exporter"
	},
	"accessors":[
		{
			"bufferView":0,
			"componentType":5125,
			"count":48783,
			"type":"SCALAR",
			"min":[0
			],
			"max":[28311
			]
		},
		{
			"bufferView":1,
			"componentType":5126,
			"count":28312,
			"type":"VEC3",
			"min":[-64,-32.0409889,0
			],
			"max":[192,15.3202286,64
			]
		},
		{
			"bufferView":2,
			"componentType":5126,
			"count":28312,
			"type":"VEC3",
			"min":[0.0669559985,0.0729853362,0.0292805433
			],
			"max":[1.99980319,1.199893,0.611304283
			]
		},
		{
			"bufferView":3,
			"componentType":5126,
			"count":28312,
			"type":"VEC3",
			"min":[-1,-0.193551347,-1
			],
			"max":[0.807555735,1,1
			]
		},
		{
			"bufferView":4,
			"componentType":5126,
			"count":28312,
			"type":"VEC4",
			"min":[-0.99999994,-0.106288113,-0.807555676,1
			],
			"max":[1,0.0546572059,1,1
			]
		},
		{
			"bufferView":5,
			"componentType":5126,
			"count":28312,
			"type":"VEC2",
			"min":[0,0.0167740583
			],
			"max":[0.991605222,1
			]
		}
	],
	"buffers":[
		{
			"uri":"mesh_bdgs_vista_b_data.bin",
			"byteLength":1893852,
			"name":"main_buffer"
		}
	],
	"bufferViews":[
		{
			"buffer":0,
			"byteLength":195132,
			"target":34963
		},
		{
			"buffer":0,
			"byteOffset":195132,
			"byteLength":339744,
			"target":34962
		},
		{
			"buffer":0,
			"byteOffset":534876,
			"byteLength":339744,
			"target":34962
		},
		{
			"buffer":0,
			"byteOffset":874620,
			"byteLength":339744,
			"target":34962
		},
		{
			"buffer":0,
			"byteOffset":1214364,
			"byteLength":452992,
			"target":34962
		},
		{
			"buffer":0,
			"byteOffset":1667356,
			"byteLength":226496,
			"target":34962
		}
	],
	"nodes":[
		{
			"name":"geo1",
			"mesh":0
		}
	],
	"meshes":[
		{
			"primitives":[
				{
					"attributes":{
						"TEXCOORD_0":5,
						"TANGENT":4,
						"COLOR_0":2,
						"POSITION":1,
						"NORMAL":3
					},
					"indices":0,
					"material":0
				}
			],
			"name":"clip4"
		}
	],
	"materials":[
		{
			"name":"unlit",
			"pbrMetallicRoughness":{
				"baseColorFactor":[0.200000003,0.200000003,0.200000003,1
				],
				"metallicFactor":0,
				"roughnessFactor":0.300000012
			}
		}
	],
	"scenes":[
		{
			"nodes":[0
			]
		}
	],
	"scene":0
}
