{
	"asset":{
		"version":"2.0",
		"generator":"Houdini GLTF 2.0 Exporter"
	},
	"accessors":[
		{
			"bufferView":0,
			"componentType":5125,
			"count":46194,
			"type":"SCALAR",
			"min":[0
			],
			"max":[26926
			]
		},
		{
			"bufferView":1,
			"componentType":5126,
			"count":26927,
			"type":"VEC3",
			"min":[-64,-32.0409889,0
			],
			"max":[192,21.5192719,64
			]
		},
		{
			"bufferView":2,
			"componentType":5126,
			"count":26927,
			"type":"VEC3",
			"min":[0.0669559985,0.0729853362,0.0296603441
			],
			"max":[1.99981368,1.19991207,0.611808717
			]
		},
		{
			"bufferView":3,
			"componentType":5126,
			"count":26927,
			"type":"VEC3",
			"min":[-1,-1,-1
			],
			"max":[0.808314741,1,1
			]
		},
		{
			"bufferView":4,
			"componentType":5126,
			"count":26927,
			"type":"VEC4",
			"min":[-1,-0.141542956,-0.976059377,1
			],
			"max":[1,0.103067264,1,1
			]
		},
		{
			"bufferView":5,
			"componentType":5126,
			"count":26927,
			"type":"VEC2",
			"min":[0,0.0167741179
			],
			"max":[0.991603434,1
			]
		}
	],
	"buffers":[
		{
			"uri":"mesh_bdgs_vista_a_data.bin",
			"byteLength":1800396,
			"name":"main_buffer"
		}
	],
	"bufferViews":[
		{
			"buffer":0,
			"byteLength":184776,
			"target":34963
		},
		{
			"buffer":0,
			"byteOffset":184776,
			"byteLength":323124,
			"target":34962
		},
		{
			"buffer":0,
			"byteOffset":507900,
			"byteLength":323124,
			"target":34962
		},
		{
			"buffer":0,
			"byteOffset":831024,
			"byteLength":323124,
			"target":34962
		},
		{
			"buffer":0,
			"byteOffset":1154148,
			"byteLength":430832,
			"target":34962
		},
		{
			"buffer":0,
			"byteOffset":1584980,
			"byteLength":215416,
			"target":34962
		}
	],
	"nodes":[
		{
			"name":"geo1",
			"mesh":0
		}
	],
	"meshes":[
		{
			"primitives":[
				{
					"attributes":{
						"TEXCOORD_0":5,
						"TANGENT":4,
						"COLOR_0":2,
						"POSITION":1,
						"NORMAL":3
					},
					"indices":0,
					"material":0
				}
			],
			"name":"transform4"
		}
	],
	"materials":[
		{
			"name":"unlit",
			"pbrMetallicRoughness":{
				"baseColorFactor":[0.200000003,0.200000003,0.200000003,1
				],
				"metallicFactor":0,
				"roughnessFactor":0.300000012
			}
		}
	],
	"scenes":[
		{
			"nodes":[0
			]
		}
	],
	"scene":0
}
