{
	"asset":{
		"version":"2.0",
		"generator":"Houdini GLTF 2.0 Exporter"
	},
	"accessors":[
		{
			"bufferView":0,
			"componentType":5125,
			"count":79806,
			"type":"SCALAR",
			"min":[0
			],
			"max":[67597
			]
		},
		{
			"bufferView":1,
			"componentType":5126,
			"count":67598,
			"type":"VEC3",
			"min":[-4.62555885,-9.07196712,-0.162461117
			],
			"max":[13.6507244,6.44999981,14.1631517
			]
		},
		{
			"bufferView":2,
			"componentType":5126,
			"count":67598,
			"type":"SCALAR",
			"min":[-1.57079661
			],
			"max":[6.28318548
			]
		},
		{
			"bufferView":3,
			"componentType":5126,
			"count":67598,
			"type":"SCALAR",
			"min":[0
			],
			"max":[1
			]
		},
		{
			"bufferView":4,
			"componentType":5126,
			"count":67598,
			"type":"VEC3",
			"min":[-1,-1,-1
			],
			"max":[1,1,1
			]
		},
		{
			"bufferView":5,
			"componentType":5126,
			"count":67598,
			"type":"SCALAR",
			"min":[1
			],
			"max":[1
			]
		},
		{
			"bufferView":6,
			"componentType":5126,
			"count":67598,
			"type":"VEC4",
			"min":[-1,-1,-1,1
			],
			"max":[1,1,1,1
			]
		},
		{
			"bufferView":7,
			"componentType":5126,
			"count":67598,
			"type":"SCALAR",
			"min":[0
			],
			"max":[0.767905653
			]
		},
		{
			"bufferView":8,
			"componentType":5126,
			"count":67598,
			"type":"SCALAR",
			"min":[0
			],
			"max":[1
			]
		},
		{
			"bufferView":9,
			"componentType":5126,
			"count":67598,
			"type":"VEC2",
			"min":[0,0.0138823986
			],
			"max":[0.98623836,1
			]
		},
		{
			"bufferView":10,
			"componentType":5126,
			"count":67598,
			"type":"VEC3",
			"min":[0.120204002,0.124036789,0.0160540026
			],
			"max":[1,0.903317988,0.654000044
			]
		},
		{
			"bufferView":11,
			"componentType":5126,
			"count":67598,
			"type":"SCALAR",
			"min":[-0.328428507
			],
			"max":[0.556552052
			]
		},
		{
			"bufferView":12,
			"componentType":5125,
			"count":67598,
			"type":"SCALAR",
			"min":[0
			],
			"max":[1
			]
		},
		{
			"bufferView":13,
			"componentType":5125,
			"count":67598,
			"type":"SCALAR",
			"min":[-1
			],
			"max":[3
			]
		},
		{
			"bufferView":14,
			"componentType":5126,
			"count":67598,
			"type":"SCALAR",
			"min":[0
			],
			"max":[14.21562
			]
		}
	],
	"buffers":[
		{
			"uri":"mesh_bdg_H_14_data.bin",
			"byteLength":6808632,
			"name":"main_buffer"
		}
	],
	"bufferViews":[
		{
			"buffer":0,
			"byteLength":319224,
			"target":34963
		},
		{
			"buffer":0,
			"byteOffset":319224,
			"byteLength":811176,
			"target":34962
		},
		{
			"buffer":0,
			"byteOffset":1130400,
			"byteLength":270392,
			"target":34962
		},
		{
			"buffer":0,
			"byteOffset":1400792,
			"byteLength":270392,
			"target":34962
		},
		{
			"buffer":0,
			"byteOffset":1671184,
			"byteLength":811176,
			"target":34962
		},
		{
			"buffer":0,
			"byteOffset":2482360,
			"byteLength":270392,
			"target":34962
		},
		{
			"buffer":0,
			"byteOffset":2752752,
			"byteLength":1081568,
			"target":34962
		},
		{
			"buffer":0,
			"byteOffset":3834320,
			"byteLength":270392,
			"target":34962
		},
		{
			"buffer":0,
			"byteOffset":4104712,
			"byteLength":270392,
			"target":34962
		},
		{
			"buffer":0,
			"byteOffset":4375104,
			"byteLength":540784,
			"target":34962
		},
		{
			"buffer":0,
			"byteOffset":4915888,
			"byteLength":811176,
			"target":34962
		},
		{
			"buffer":0,
			"byteOffset":5727064,
			"byteLength":270392,
			"target":34962
		},
		{
			"buffer":0,
			"byteOffset":5997456,
			"byteLength":270392,
			"target":34962
		},
		{
			"buffer":0,
			"byteOffset":6267848,
			"byteLength":270392,
			"target":34962
		},
		{
			"buffer":0,
			"byteOffset":6538240,
			"byteLength":270392,
			"target":34962
		}
	],
	"nodes":[
		{
			"name":"geo1",
			"mesh":0
		}
	],
	"meshes":[
		{
			"primitives":[
				{
					"attributes":{
						"_shadowmask":7,
						"_exposure":8,
						"TANGENT":6,
						"TEXCOORD_0":9,
						"POSITION":1,
						"NORMAL":4,
						"_Alpha":5,
						"_class":13,
						"_isCurve":12,
						"_del":11,
						"COLOR_0":10,
						"_curvature":2,
						"_restlength":14,
						"_ao":3
					},
					"indices":0,
					"material":0
				}
			],
			"name":"material11"
		}
	],
	"materials":[
		{
			"name":"unlit",
			"pbrMetallicRoughness":{
				"baseColorFactor":[0.200000003,0.200000003,0.200000003,1
				],
				"metallicFactor":0,
				"roughnessFactor":0.300000012
			}
		}
	],
	"scenes":[
		{
			"nodes":[0
			]
		}
	],
	"scene":0
}
