{
	"asset":{
		"version":"2.0",
		"generator":"Houdini GLTF 2.0 Exporter"
	},
	"accessors":[
		{
			"bufferView":0,
			"componentType":5125,
			"count":43761,
			"type":"SCALAR",
			"min":[0
			],
			"max":[37047
			]
		},
		{
			"bufferView":1,
			"componentType":5126,
			"count":37048,
			"type":"VEC3",
			"min":[-1.66541088,-12.0993977,-0.131902382
			],
			"max":[8.63190269,3.45000005,10.1654968
			]
		},
		{
			"bufferView":2,
			"componentType":5126,
			"count":37048,
			"type":"SCALAR",
			"min":[-1.57079661
			],
			"max":[6.28318548
			]
		},
		{
			"bufferView":3,
			"componentType":5126,
			"count":37048,
			"type":"SCALAR",
			"min":[0
			],
			"max":[1
			]
		},
		{
			"bufferView":4,
			"componentType":5126,
			"count":37048,
			"type":"VEC3",
			"min":[-1,-1,-1
			],
			"max":[0.0834750012,1,1
			]
		},
		{
			"bufferView":5,
			"componentType":5126,
			"count":37048,
			"type":"SCALAR",
			"min":[1
			],
			"max":[1
			]
		},
		{
			"bufferView":6,
			"componentType":5126,
			"count":37048,
			"type":"VEC4",
			"min":[-1,-0.999938607,-1,1
			],
			"max":[1,0.894427359,1,1
			]
		},
		{
			"bufferView":7,
			"componentType":5126,
			"count":37048,
			"type":"SCALAR",
			"min":[0
			],
			"max":[0.88580811
			]
		},
		{
			"bufferView":8,
			"componentType":5126,
			"count":37048,
			"type":"SCALAR",
			"min":[0
			],
			"max":[1
			]
		},
		{
			"bufferView":9,
			"componentType":5126,
			"count":37048,
			"type":"VEC2",
			"min":[0,0.0365952849
			],
			"max":[0.981473029,1
			]
		},
		{
			"bufferView":10,
			"componentType":5126,
			"count":37048,
			"type":"VEC3",
			"min":[0.120204002,0.111846134,0.0160540026
			],
			"max":[1,0.903317988,0.654000044
			]
		},
		{
			"bufferView":11,
			"componentType":5126,
			"count":37048,
			"type":"SCALAR",
			"min":[-0.328918368
			],
			"max":[0.463089794
			]
		},
		{
			"bufferView":12,
			"componentType":5125,
			"count":37048,
			"type":"SCALAR",
			"min":[0
			],
			"max":[1
			]
		},
		{
			"bufferView":13,
			"componentType":5125,
			"count":37048,
			"type":"SCALAR",
			"min":[-1
			],
			"max":[1
			]
		},
		{
			"bufferView":14,
			"componentType":5126,
			"count":37048,
			"type":"SCALAR",
			"min":[0
			],
			"max":[12.9190226
			]
		}
	],
	"buffers":[
		{
			"uri":"mesh_bdg_B_07_data.bin",
			"byteLength":3731652,
			"name":"main_buffer"
		}
	],
	"bufferViews":[
		{
			"buffer":0,
			"byteLength":175044,
			"target":34963
		},
		{
			"buffer":0,
			"byteOffset":175044,
			"byteLength":444576,
			"target":34962
		},
		{
			"buffer":0,
			"byteOffset":619620,
			"byteLength":148192,
			"target":34962
		},
		{
			"buffer":0,
			"byteOffset":767812,
			"byteLength":148192,
			"target":34962
		},
		{
			"buffer":0,
			"byteOffset":916004,
			"byteLength":444576,
			"target":34962
		},
		{
			"buffer":0,
			"byteOffset":1360580,
			"byteLength":148192,
			"target":34962
		},
		{
			"buffer":0,
			"byteOffset":1508772,
			"byteLength":592768,
			"target":34962
		},
		{
			"buffer":0,
			"byteOffset":2101540,
			"byteLength":148192,
			"target":34962
		},
		{
			"buffer":0,
			"byteOffset":2249732,
			"byteLength":148192,
			"target":34962
		},
		{
			"buffer":0,
			"byteOffset":2397924,
			"byteLength":296384,
			"target":34962
		},
		{
			"buffer":0,
			"byteOffset":2694308,
			"byteLength":444576,
			"target":34962
		},
		{
			"buffer":0,
			"byteOffset":3138884,
			"byteLength":148192,
			"target":34962
		},
		{
			"buffer":0,
			"byteOffset":3287076,
			"byteLength":148192,
			"target":34962
		},
		{
			"buffer":0,
			"byteOffset":3435268,
			"byteLength":148192,
			"target":34962
		},
		{
			"buffer":0,
			"byteOffset":3583460,
			"byteLength":148192,
			"target":34962
		}
	],
	"nodes":[
		{
			"name":"geo1",
			"mesh":0
		}
	],
	"meshes":[
		{
			"primitives":[
				{
					"attributes":{
						"_shadowmask":7,
						"_exposure":8,
						"TANGENT":6,
						"TEXCOORD_0":9,
						"POSITION":1,
						"NORMAL":4,
						"_Alpha":5,
						"_class":13,
						"_isCurve":12,
						"_del":11,
						"COLOR_0":10,
						"_curvature":2,
						"_restlength":14,
						"_ao":3
					},
					"indices":0,
					"material":0
				}
			],
			"name":"material8"
		}
	],
	"materials":[
		{
			"name":"unlit",
			"pbrMetallicRoughness":{
				"baseColorFactor":[0.200000003,0.200000003,0.200000003,1
				],
				"metallicFactor":0,
				"roughnessFactor":0.300000012
			}
		}
	],
	"scenes":[
		{
			"nodes":[0
			]
		}
	],
	"scene":0
}
