{
	"asset":{
		"version":"2.0",
		"generator":"Houdini GLTF 2.0 Exporter"
	},
	"accessors":[
		{
			"bufferView":0,
			"componentType":5123,
			"count":13050,
			"type":"SCALAR",
			"min":[0
			],
			"max":[10481
			]
		},
		{
			"bufferView":1,
			"componentType":5126,
			"count":10482,
			"type":"VEC3",
			"min":[-2.67878747,-30,-0.179100782
			],
			"max":[3.66246891,0.449999988,4.17875004
			]
		},
		{
			"bufferView":2,
			"componentType":5126,
			"count":10482,
			"type":"SCALAR",
			"min":[-1.57079661
			],
			"max":[6.28318548
			]
		},
		{
			"bufferView":3,
			"componentType":5126,
			"count":10482,
			"type":"SCALAR",
			"min":[0
			],
			"max":[1
			]
		},
		{
			"bufferView":4,
			"componentType":5126,
			"count":10482,
			"type":"VEC3",
			"min":[-1,-1,-1
			],
			"max":[0.0781938508,1,1
			]
		},
		{
			"bufferView":5,
			"componentType":5126,
			"count":10482,
			"type":"SCALAR",
			"min":[1
			],
			"max":[1
			]
		},
		{
			"bufferView":6,
			"componentType":5126,
			"count":10482,
			"type":"VEC4",
			"min":[-1,-0.894427717,-0.639602184,1
			],
			"max":[1,0.894427359,1,1
			]
		},
		{
			"bufferView":7,
			"componentType":5126,
			"count":10482,
			"type":"VEC2",
			"min":[0,0.0203971863
			],
			"max":[0.980383992,1
			]
		},
		{
			"bufferView":8,
			"componentType":5126,
			"count":10482,
			"type":"VEC3",
			"min":[0.0551819988,0.0575229004,0.0160540026
			],
			"max":[1,0.779268742,0.996883154
			]
		},
		{
			"bufferView":9,
			"componentType":5125,
			"count":10482,
			"type":"SCALAR",
			"min":[-1
			],
			"max":[11
			]
		},
		{
			"bufferView":10,
			"componentType":5126,
			"count":10482,
			"type":"SCALAR",
			"min":[0
			],
			"max":[1
			]
		},
		{
			"bufferView":11,
			"componentType":5126,
			"count":10482,
			"type":"SCALAR",
			"min":[0
			],
			"max":[1
			]
		},
		{
			"bufferView":12,
			"componentType":5126,
			"count":10482,
			"type":"SCALAR",
			"min":[0
			],
			"max":[1
			]
		},
		{
			"bufferView":13,
			"componentType":5126,
			"count":10482,
			"type":"SCALAR",
			"min":[0
			],
			"max":[0.839363813
			]
		},
		{
			"bufferView":14,
			"componentType":5126,
			"count":10482,
			"type":"SCALAR",
			"min":[-0.333333343
			],
			"max":[0.507224798
			]
		},
		{
			"bufferView":15,
			"componentType":5126,
			"count":10482,
			"type":"SCALAR",
			"min":[0
			],
			"max":[1
			]
		},
		{
			"bufferView":16,
			"componentType":5126,
			"count":10482,
			"type":"SCALAR",
			"min":[0
			],
			"max":[15.674283
			]
		},
		{
			"bufferView":17,
			"componentType":5125,
			"count":10482,
			"type":"SCALAR",
			"min":[0
			],
			"max":[0
			]
		},
		{
			"bufferView":18,
			"componentType":5126,
			"count":10482,
			"type":"SCALAR",
			"min":[0
			],
			"max":[0.633199036
			]
		},
		{
			"bufferView":19,
			"componentType":5125,
			"count":10482,
			"type":"SCALAR",
			"min":[0
			],
			"max":[1
			]
		},
		{
			"bufferView":20,
			"componentType":5125,
			"count":10482,
			"type":"SCALAR",
			"min":[-1
			],
			"max":[5
			]
		},
		{
			"bufferView":21,
			"componentType":5125,
			"count":10482,
			"type":"SCALAR",
			"min":[-1
			],
			"max":[12
			]
		},
		{
			"bufferView":22,
			"componentType":5126,
			"count":10482,
			"type":"SCALAR",
			"min":[0
			],
			"max":[60
			]
		}
	],
	"buffers":[
		{
			"uri":"mesh_bdg_K_04_data.bin",
			"byteLength":1367796,
			"name":"main_buffer"
		}
	],
	"bufferViews":[
		{
			"buffer":0,
			"byteLength":26100,
			"target":34963
		},
		{
			"buffer":0,
			"byteOffset":26100,
			"byteLength":125784,
			"target":34962
		},
		{
			"buffer":0,
			"byteOffset":151884,
			"byteLength":41928,
			"target":34962
		},
		{
			"buffer":0,
			"byteOffset":193812,
			"byteLength":41928,
			"target":34962
		},
		{
			"buffer":0,
			"byteOffset":235740,
			"byteLength":125784,
			"target":34962
		},
		{
			"buffer":0,
			"byteOffset":361524,
			"byteLength":41928,
			"target":34962
		},
		{
			"buffer":0,
			"byteOffset":403452,
			"byteLength":167712,
			"target":34962
		},
		{
			"buffer":0,
			"byteOffset":571164,
			"byteLength":83856,
			"target":34962
		},
		{
			"buffer":0,
			"byteOffset":655020,
			"byteLength":125784,
			"target":34962
		},
		{
			"buffer":0,
			"byteOffset":780804,
			"byteLength":41928,
			"target":34962
		},
		{
			"buffer":0,
			"byteOffset":822732,
			"byteLength":41928,
			"target":34962
		},
		{
			"buffer":0,
			"byteOffset":864660,
			"byteLength":41928,
			"target":34962
		},
		{
			"buffer":0,
			"byteOffset":906588,
			"byteLength":41928,
			"target":34962
		},
		{
			"buffer":0,
			"byteOffset":948516,
			"byteLength":41928,
			"target":34962
		},
		{
			"buffer":0,
			"byteOffset":990444,
			"byteLength":41928,
			"target":34962
		},
		{
			"buffer":0,
			"byteOffset":1032372,
			"byteLength":41928,
			"target":34962
		},
		{
			"buffer":0,
			"byteOffset":1074300,
			"byteLength":41928,
			"target":34962
		},
		{
			"buffer":0,
			"byteOffset":1116228,
			"byteLength":41928,
			"target":34962
		},
		{
			"buffer":0,
			"byteOffset":1158156,
			"byteLength":41928,
			"target":34962
		},
		{
			"buffer":0,
			"byteOffset":1200084,
			"byteLength":41928,
			"target":34962
		},
		{
			"buffer":0,
			"byteOffset":1242012,
			"byteLength":41928,
			"target":34962
		},
		{
			"buffer":0,
			"byteOffset":1283940,
			"byteLength":41928,
			"target":34962
		},
		{
			"buffer":0,
			"byteOffset":1325868,
			"byteLength":41928,
			"target":34962
		}
	],
	"nodes":[
		{
			"name":"geo1",
			"mesh":0
		}
	],
	"meshes":[
		{
			"primitives":[
				{
					"attributes":{
						"_cluster":22,
						"_shadowmask":11,
						"_exposure":10,
						"TANGENT":6,
						"TEXCOORD_0":7,
						"POSITION":1,
						"_zscale":18,
						"_cut_edge":17,
						"NORMAL":4,
						"_furn":9,
						"_window_prim":13,
						"_Alpha":5,
						"_class":21,
						"_isCurve":19,
						"_mask":15,
						"_del":14,
						"COLOR_0":8,
						"_intbby":12,
						"_curvature":2,
						"_restlength":16,
						"_furn2":20,
						"_ao":3
					},
					"indices":0,
					"material":0
				}
			],
			"name":"material4"
		}
	],
	"materials":[
		{
			"name":"unlit",
			"pbrMetallicRoughness":{
				"baseColorFactor":[0.200000003,0.200000003,0.200000003,1
				],
				"metallicFactor":0,
				"roughnessFactor":0.300000012
			}
		}
	],
	"scenes":[
		{
			"nodes":[0
			]
		}
	],
	"scene":0
}
