{
	"asset":{
		"version":"2.0",
		"generator":"Houdini GLTF 2.0 Exporter"
	},
	"accessors":[
		{
			"bufferView":0,
			"componentType":5125,
			"count":87009,
			"type":"SCALAR",
			"min":[0
			],
			"max":[75067
			]
		},
		{
			"bufferView":1,
			"componentType":5126,
			"count":75068,
			"type":"VEC3",
			"min":[-0.622043252,-9,-2.05221081
			],
			"max":[16.5522118,6.44999981,12.1210251
			]
		},
		{
			"bufferView":2,
			"componentType":5126,
			"count":75068,
			"type":"SCALAR",
			"min":[-7.85398149
			],
			"max":[6.28318548
			]
		},
		{
			"bufferView":3,
			"componentType":5126,
			"count":75068,
			"type":"SCALAR",
			"min":[0
			],
			"max":[1
			]
		},
		{
			"bufferView":4,
			"componentType":5126,
			"count":75068,
			"type":"VEC3",
			"min":[-1,-1,-1
			],
			"max":[1,1,1
			]
		},
		{
			"bufferView":5,
			"componentType":5126,
			"count":75068,
			"type":"SCALAR",
			"min":[1
			],
			"max":[1
			]
		},
		{
			"bufferView":6,
			"componentType":5126,
			"count":75068,
			"type":"VEC4",
			"min":[-1,-1,-1,1
			],
			"max":[1,1,1,1
			]
		},
		{
			"bufferView":7,
			"componentType":5126,
			"count":75068,
			"type":"SCALAR",
			"min":[0
			],
			"max":[0.729370773
			]
		},
		{
			"bufferView":8,
			"componentType":5126,
			"count":75068,
			"type":"SCALAR",
			"min":[0
			],
			"max":[1
			]
		},
		{
			"bufferView":9,
			"componentType":5126,
			"count":75068,
			"type":"VEC2",
			"min":[0,0.0132085681
			],
			"max":[0.986791432,1
			]
		},
		{
			"bufferView":10,
			"componentType":5126,
			"count":75068,
			"type":"VEC3",
			"min":[0.120204002,0.111846134,0.0160540026
			],
			"max":[1,0.903317988,0.654000044
			]
		},
		{
			"bufferView":11,
			"componentType":5126,
			"count":75068,
			"type":"SCALAR",
			"min":[-0.328860968
			],
			"max":[0.404402822
			]
		},
		{
			"bufferView":12,
			"componentType":5125,
			"count":75068,
			"type":"SCALAR",
			"min":[0
			],
			"max":[1
			]
		},
		{
			"bufferView":13,
			"componentType":5125,
			"count":75068,
			"type":"SCALAR",
			"min":[-1
			],
			"max":[3
			]
		},
		{
			"bufferView":14,
			"componentType":5126,
			"count":75068,
			"type":"SCALAR",
			"min":[0
			],
			"max":[8.84903145
			]
		}
	],
	"buffers":[
		{
			"uri":"mesh_bdg_N_12_data.bin",
			"byteLength":7554564,
			"name":"main_buffer"
		}
	],
	"bufferViews":[
		{
			"buffer":0,
			"byteLength":348036,
			"target":34963
		},
		{
			"buffer":0,
			"byteOffset":348036,
			"byteLength":900816,
			"target":34962
		},
		{
			"buffer":0,
			"byteOffset":1248852,
			"byteLength":300272,
			"target":34962
		},
		{
			"buffer":0,
			"byteOffset":1549124,
			"byteLength":300272,
			"target":34962
		},
		{
			"buffer":0,
			"byteOffset":1849396,
			"byteLength":900816,
			"target":34962
		},
		{
			"buffer":0,
			"byteOffset":2750212,
			"byteLength":300272,
			"target":34962
		},
		{
			"buffer":0,
			"byteOffset":3050484,
			"byteLength":1201088,
			"target":34962
		},
		{
			"buffer":0,
			"byteOffset":4251572,
			"byteLength":300272,
			"target":34962
		},
		{
			"buffer":0,
			"byteOffset":4551844,
			"byteLength":300272,
			"target":34962
		},
		{
			"buffer":0,
			"byteOffset":4852116,
			"byteLength":600544,
			"target":34962
		},
		{
			"buffer":0,
			"byteOffset":5452660,
			"byteLength":900816,
			"target":34962
		},
		{
			"buffer":0,
			"byteOffset":6353476,
			"byteLength":300272,
			"target":34962
		},
		{
			"buffer":0,
			"byteOffset":6653748,
			"byteLength":300272,
			"target":34962
		},
		{
			"buffer":0,
			"byteOffset":6954020,
			"byteLength":300272,
			"target":34962
		},
		{
			"buffer":0,
			"byteOffset":7254292,
			"byteLength":300272,
			"target":34962
		}
	],
	"nodes":[
		{
			"name":"geo1",
			"mesh":0
		}
	],
	"meshes":[
		{
			"primitives":[
				{
					"attributes":{
						"_shadowmask":7,
						"_exposure":8,
						"TANGENT":6,
						"TEXCOORD_0":9,
						"POSITION":1,
						"NORMAL":4,
						"_Alpha":5,
						"_class":13,
						"_isCurve":12,
						"_del":11,
						"COLOR_0":10,
						"_curvature":2,
						"_restlength":14,
						"_ao":3
					},
					"indices":0,
					"material":0
				}
			],
			"name":"material15"
		}
	],
	"materials":[
		{
			"name":"unlit",
			"pbrMetallicRoughness":{
				"baseColorFactor":[0.200000003,0.200000003,0.200000003,1
				],
				"metallicFactor":0,
				"roughnessFactor":0.300000012
			}
		}
	],
	"scenes":[
		{
			"nodes":[0
			]
		}
	],
	"scene":0
}
