{
	"asset":{
		"version":"2.0",
		"generator":"Houdini GLTF 2.0 Exporter"
	},
	"accessors":[
		{
			"bufferView":0,
			"componentType":5125,
			"count":39684,
			"type":"SCALAR",
			"min":[0
			],
			"max":[33145
			]
		},
		{
			"bufferView":1,
			"componentType":5126,
			"count":33146,
			"type":"VEC3",
			"min":[-0.67369169,-24.0000019,-0.183713555
			],
			"max":[16.6797695,6.4499979,15.1811867
			]
		},
		{
			"bufferView":2,
			"componentType":5126,
			"count":33146,
			"type":"SCALAR",
			"min":[-1.57079661
			],
			"max":[6.28318548
			]
		},
		{
			"bufferView":3,
			"componentType":5126,
			"count":33146,
			"type":"SCALAR",
			"min":[0
			],
			"max":[1
			]
		},
		{
			"bufferView":4,
			"componentType":5126,
			"count":33146,
			"type":"VEC3",
			"min":[-1,-1,-1
			],
			"max":[0.0801469609,1,1
			]
		},
		{
			"bufferView":5,
			"componentType":5126,
			"count":33146,
			"type":"SCALAR",
			"min":[1
			],
			"max":[1
			]
		},
		{
			"bufferView":6,
			"componentType":5126,
			"count":33146,
			"type":"VEC4",
			"min":[-1,-0.948683262,-0.639699459,1
			],
			"max":[1,0.9486835,1,1
			]
		},
		{
			"bufferView":7,
			"componentType":5126,
			"count":33146,
			"type":"VEC2",
			"min":[0,0.0336749554
			],
			"max":[0.982901573,1
			]
		},
		{
			"bufferView":8,
			"componentType":5126,
			"count":33146,
			"type":"VEC3",
			"min":[0.0551819988,0.0575229004,0.0160540026
			],
			"max":[1,0.77365005,0.982322097
			]
		},
		{
			"bufferView":9,
			"componentType":5125,
			"count":33146,
			"type":"SCALAR",
			"min":[-1
			],
			"max":[55
			]
		},
		{
			"bufferView":10,
			"componentType":5126,
			"count":33146,
			"type":"SCALAR",
			"min":[0
			],
			"max":[1
			]
		},
		{
			"bufferView":11,
			"componentType":5126,
			"count":33146,
			"type":"SCALAR",
			"min":[0
			],
			"max":[1
			]
		},
		{
			"bufferView":12,
			"componentType":5126,
			"count":33146,
			"type":"SCALAR",
			"min":[0
			],
			"max":[1
			]
		},
		{
			"bufferView":13,
			"componentType":5126,
			"count":33146,
			"type":"SCALAR",
			"min":[0
			],
			"max":[0.842235982
			]
		},
		{
			"bufferView":14,
			"componentType":5126,
			"count":33146,
			"type":"SCALAR",
			"min":[-0.333255589
			],
			"max":[0.51110214
			]
		},
		{
			"bufferView":15,
			"componentType":5126,
			"count":33146,
			"type":"SCALAR",
			"min":[0
			],
			"max":[1
			]
		},
		{
			"bufferView":16,
			"componentType":5126,
			"count":33146,
			"type":"SCALAR",
			"min":[0
			],
			"max":[15.674283
			]
		},
		{
			"bufferView":17,
			"componentType":5125,
			"count":33146,
			"type":"SCALAR",
			"min":[0
			],
			"max":[0
			]
		},
		{
			"bufferView":18,
			"componentType":5126,
			"count":33146,
			"type":"SCALAR",
			"min":[0
			],
			"max":[0.927989185
			]
		},
		{
			"bufferView":19,
			"componentType":5125,
			"count":33146,
			"type":"SCALAR",
			"min":[0
			],
			"max":[1
			]
		},
		{
			"bufferView":20,
			"componentType":5125,
			"count":33146,
			"type":"SCALAR",
			"min":[-1
			],
			"max":[18
			]
		},
		{
			"bufferView":21,
			"componentType":5125,
			"count":33146,
			"type":"SCALAR",
			"min":[-1
			],
			"max":[22
			]
		},
		{
			"bufferView":22,
			"componentType":5126,
			"count":33146,
			"type":"SCALAR",
			"min":[0
			],
			"max":[290
			]
		}
	],
	"buffers":[
		{
			"uri":"mesh_bdg_J_12_data.bin",
			"byteLength":4401424,
			"name":"main_buffer"
		}
	],
	"bufferViews":[
		{
			"buffer":0,
			"byteLength":158736,
			"target":34963
		},
		{
			"buffer":0,
			"byteOffset":158736,
			"byteLength":397752,
			"target":34962
		},
		{
			"buffer":0,
			"byteOffset":556488,
			"byteLength":132584,
			"target":34962
		},
		{
			"buffer":0,
			"byteOffset":689072,
			"byteLength":132584,
			"target":34962
		},
		{
			"buffer":0,
			"byteOffset":821656,
			"byteLength":397752,
			"target":34962
		},
		{
			"buffer":0,
			"byteOffset":1219408,
			"byteLength":132584,
			"target":34962
		},
		{
			"buffer":0,
			"byteOffset":1351992,
			"byteLength":530336,
			"target":34962
		},
		{
			"buffer":0,
			"byteOffset":1882328,
			"byteLength":265168,
			"target":34962
		},
		{
			"buffer":0,
			"byteOffset":2147496,
			"byteLength":397752,
			"target":34962
		},
		{
			"buffer":0,
			"byteOffset":2545248,
			"byteLength":132584,
			"target":34962
		},
		{
			"buffer":0,
			"byteOffset":2677832,
			"byteLength":132584,
			"target":34962
		},
		{
			"buffer":0,
			"byteOffset":2810416,
			"byteLength":132584,
			"target":34962
		},
		{
			"buffer":0,
			"byteOffset":2943000,
			"byteLength":132584,
			"target":34962
		},
		{
			"buffer":0,
			"byteOffset":3075584,
			"byteLength":132584,
			"target":34962
		},
		{
			"buffer":0,
			"byteOffset":3208168,
			"byteLength":132584,
			"target":34962
		},
		{
			"buffer":0,
			"byteOffset":3340752,
			"byteLength":132584,
			"target":34962
		},
		{
			"buffer":0,
			"byteOffset":3473336,
			"byteLength":132584,
			"target":34962
		},
		{
			"buffer":0,
			"byteOffset":3605920,
			"byteLength":132584,
			"target":34962
		},
		{
			"buffer":0,
			"byteOffset":3738504,
			"byteLength":132584,
			"target":34962
		},
		{
			"buffer":0,
			"byteOffset":3871088,
			"byteLength":132584,
			"target":34962
		},
		{
			"buffer":0,
			"byteOffset":4003672,
			"byteLength":132584,
			"target":34962
		},
		{
			"buffer":0,
			"byteOffset":4136256,
			"byteLength":132584,
			"target":34962
		},
		{
			"buffer":0,
			"byteOffset":4268840,
			"byteLength":132584,
			"target":34962
		}
	],
	"nodes":[
		{
			"name":"geo1",
			"mesh":0
		}
	],
	"meshes":[
		{
			"primitives":[
				{
					"attributes":{
						"_cluster":22,
						"_shadowmask":11,
						"_exposure":10,
						"TANGENT":6,
						"TEXCOORD_0":7,
						"POSITION":1,
						"_zscale":18,
						"_cut_edge":17,
						"NORMAL":4,
						"_furn":9,
						"_window_prim":13,
						"_Alpha":5,
						"_class":21,
						"_isCurve":19,
						"_mask":15,
						"_del":14,
						"COLOR_0":8,
						"_intbby":12,
						"_curvature":2,
						"_restlength":16,
						"_furn2":20,
						"_ao":3
					},
					"indices":0,
					"material":0
				}
			],
			"name":"material12"
		}
	],
	"materials":[
		{
			"name":"unlit",
			"pbrMetallicRoughness":{
				"baseColorFactor":[0.200000003,0.200000003,0.200000003,1
				],
				"metallicFactor":0,
				"roughnessFactor":0.300000012
			}
		}
	],
	"scenes":[
		{
			"nodes":[0
			]
		}
	],
	"scene":0
}
