{
	"asset":{
		"version":"2.0",
		"generator":"Houdini GLTF 2.0 Exporter"
	},
	"accessors":[
		{
			"bufferView":0,
			"componentType":5125,
			"count":73764,
			"type":"SCALAR",
			"min":[0
			],
			"max":[62565
			]
		},
		{
			"bufferView":1,
			"componentType":5126,
			"count":62566,
			"type":"VEC3",
			"min":[-5.65878439,-12,-0.178336874
			],
			"max":[18.6587849,3.45000005,18.1587849
			]
		},
		{
			"bufferView":2,
			"componentType":5126,
			"count":62566,
			"type":"SCALAR",
			"min":[-1.57079744
			],
			"max":[6.28318548
			]
		},
		{
			"bufferView":3,
			"componentType":5126,
			"count":62566,
			"type":"SCALAR",
			"min":[0
			],
			"max":[1
			]
		},
		{
			"bufferView":4,
			"componentType":5126,
			"count":62566,
			"type":"VEC3",
			"min":[-1,-1,-1
			],
			"max":[0.0810113251,1,1
			]
		},
		{
			"bufferView":5,
			"componentType":5126,
			"count":62566,
			"type":"SCALAR",
			"min":[1
			],
			"max":[1
			]
		},
		{
			"bufferView":6,
			"componentType":5126,
			"count":62566,
			"type":"VEC4",
			"min":[-1,-0.894431055,-0.639856577,1
			],
			"max":[1,0.903064132,1,1
			]
		},
		{
			"bufferView":7,
			"componentType":5126,
			"count":62566,
			"type":"SCALAR",
			"min":[0
			],
			"max":[0.818366289
			]
		},
		{
			"bufferView":8,
			"componentType":5126,
			"count":62566,
			"type":"SCALAR",
			"min":[0
			],
			"max":[1
			]
		},
		{
			"bufferView":9,
			"componentType":5126,
			"count":62566,
			"type":"VEC2",
			"min":[0,0.0259532928
			],
			"max":[0.98696214,1
			]
		},
		{
			"bufferView":10,
			"componentType":5126,
			"count":62566,
			"type":"VEC3",
			"min":[0.120204002,0.111846119,0.0160540026
			],
			"max":[1,0.903317988,0.654000044
			]
		},
		{
			"bufferView":11,
			"componentType":5126,
			"count":62566,
			"type":"SCALAR",
			"min":[-0.32545352
			],
			"max":[0.663518012
			]
		},
		{
			"bufferView":12,
			"componentType":5125,
			"count":62566,
			"type":"SCALAR",
			"min":[0
			],
			"max":[1
			]
		},
		{
			"bufferView":13,
			"componentType":5125,
			"count":62566,
			"type":"SCALAR",
			"min":[-1
			],
			"max":[7
			]
		},
		{
			"bufferView":14,
			"componentType":5126,
			"count":62566,
			"type":"SCALAR",
			"min":[0
			],
			"max":[12.6670704
			]
		}
	],
	"buffers":[
		{
			"uri":"mesh_bdg_I_18_data.bin",
			"byteLength":6301392,
			"name":"main_buffer"
		}
	],
	"bufferViews":[
		{
			"buffer":0,
			"byteLength":295056,
			"target":34963
		},
		{
			"buffer":0,
			"byteOffset":295056,
			"byteLength":750792,
			"target":34962
		},
		{
			"buffer":0,
			"byteOffset":1045848,
			"byteLength":250264,
			"target":34962
		},
		{
			"buffer":0,
			"byteOffset":1296112,
			"byteLength":250264,
			"target":34962
		},
		{
			"buffer":0,
			"byteOffset":1546376,
			"byteLength":750792,
			"target":34962
		},
		{
			"buffer":0,
			"byteOffset":2297168,
			"byteLength":250264,
			"target":34962
		},
		{
			"buffer":0,
			"byteOffset":2547432,
			"byteLength":1001056,
			"target":34962
		},
		{
			"buffer":0,
			"byteOffset":3548488,
			"byteLength":250264,
			"target":34962
		},
		{
			"buffer":0,
			"byteOffset":3798752,
			"byteLength":250264,
			"target":34962
		},
		{
			"buffer":0,
			"byteOffset":4049016,
			"byteLength":500528,
			"target":34962
		},
		{
			"buffer":0,
			"byteOffset":4549544,
			"byteLength":750792,
			"target":34962
		},
		{
			"buffer":0,
			"byteOffset":5300336,
			"byteLength":250264,
			"target":34962
		},
		{
			"buffer":0,
			"byteOffset":5550600,
			"byteLength":250264,
			"target":34962
		},
		{
			"buffer":0,
			"byteOffset":5800864,
			"byteLength":250264,
			"target":34962
		},
		{
			"buffer":0,
			"byteOffset":6051128,
			"byteLength":250264,
			"target":34962
		}
	],
	"nodes":[
		{
			"name":"geo1",
			"mesh":0
		}
	],
	"meshes":[
		{
			"primitives":[
				{
					"attributes":{
						"_shadowmask":7,
						"_exposure":8,
						"TANGENT":6,
						"TEXCOORD_0":9,
						"POSITION":1,
						"NORMAL":4,
						"_Alpha":5,
						"_class":13,
						"_isCurve":12,
						"_del":11,
						"COLOR_0":10,
						"_curvature":2,
						"_restlength":14,
						"_ao":3
					},
					"indices":0,
					"material":0
				}
			],
			"name":"material14"
		}
	],
	"materials":[
		{
			"name":"unlit",
			"pbrMetallicRoughness":{
				"baseColorFactor":[0.200000003,0.200000003,0.200000003,1
				],
				"metallicFactor":0,
				"roughnessFactor":0.300000012
			}
		}
	],
	"scenes":[
		{
			"nodes":[0
			]
		}
	],
	"scene":0
}
