{
	"asset":{
		"version":"2.0",
		"generator":"Houdini GLTF 2.0 Exporter"
	},
	"accessors":[
		{
			"bufferView":0,
			"componentType":5125,
			"count":44598,
			"type":"SCALAR",
			"min":[0
			],
			"max":[38147
			]
		},
		{
			"bufferView":1,
			"componentType":5126,
			"count":38148,
			"type":"VEC3",
			"min":[-2.69113541,-12.0724297,-0.191135511
			],
			"max":[8.61109924,3.45000005,10.19522
			]
		},
		{
			"bufferView":2,
			"componentType":5126,
			"count":38148,
			"type":"SCALAR",
			"min":[-3.1415925
			],
			"max":[6.28318548
			]
		},
		{
			"bufferView":3,
			"componentType":5126,
			"count":38148,
			"type":"SCALAR",
			"min":[0
			],
			"max":[1
			]
		},
		{
			"bufferView":4,
			"componentType":5126,
			"count":38148,
			"type":"VEC3",
			"min":[-1,-1,-1
			],
			"max":[0.0977682248,1,1
			]
		},
		{
			"bufferView":5,
			"componentType":5126,
			"count":38148,
			"type":"SCALAR",
			"min":[1
			],
			"max":[1
			]
		},
		{
			"bufferView":6,
			"componentType":5126,
			"count":38148,
			"type":"VEC4",
			"min":[-1,-0.898091614,-0.639964581,1
			],
			"max":[1,0.969604433,1,1
			]
		},
		{
			"bufferView":7,
			"componentType":5126,
			"count":38148,
			"type":"SCALAR",
			"min":[0
			],
			"max":[0.849767327
			]
		},
		{
			"bufferView":8,
			"componentType":5126,
			"count":38148,
			"type":"SCALAR",
			"min":[0
			],
			"max":[1
			]
		},
		{
			"bufferView":9,
			"componentType":5126,
			"count":38148,
			"type":"VEC2",
			"min":[0,0.0185298324
			],
			"max":[0.963149607,1
			]
		},
		{
			"bufferView":10,
			"componentType":5126,
			"count":38148,
			"type":"VEC3",
			"min":[0.120204002,0.111846134,0.0160540026
			],
			"max":[1,0.903317988,0.654000044
			]
		},
		{
			"bufferView":11,
			"componentType":5126,
			"count":38148,
			"type":"SCALAR",
			"min":[-0.305190474
			],
			"max":[0.459967166
			]
		},
		{
			"bufferView":12,
			"componentType":5125,
			"count":38148,
			"type":"SCALAR",
			"min":[0
			],
			"max":[1
			]
		},
		{
			"bufferView":13,
			"componentType":5125,
			"count":38148,
			"type":"SCALAR",
			"min":[-1
			],
			"max":[5
			]
		},
		{
			"bufferView":14,
			"componentType":5126,
			"count":38148,
			"type":"SCALAR",
			"min":[0
			],
			"max":[13.1703873
			]
		}
	],
	"buffers":[
		{
			"uri":"mesh_bdg_A_10_data.bin",
			"byteLength":3840600,
			"name":"main_buffer"
		}
	],
	"bufferViews":[
		{
			"buffer":0,
			"byteLength":178392,
			"target":34963
		},
		{
			"buffer":0,
			"byteOffset":178392,
			"byteLength":457776,
			"target":34962
		},
		{
			"buffer":0,
			"byteOffset":636168,
			"byteLength":152592,
			"target":34962
		},
		{
			"buffer":0,
			"byteOffset":788760,
			"byteLength":152592,
			"target":34962
		},
		{
			"buffer":0,
			"byteOffset":941352,
			"byteLength":457776,
			"target":34962
		},
		{
			"buffer":0,
			"byteOffset":1399128,
			"byteLength":152592,
			"target":34962
		},
		{
			"buffer":0,
			"byteOffset":1551720,
			"byteLength":610368,
			"target":34962
		},
		{
			"buffer":0,
			"byteOffset":2162088,
			"byteLength":152592,
			"target":34962
		},
		{
			"buffer":0,
			"byteOffset":2314680,
			"byteLength":152592,
			"target":34962
		},
		{
			"buffer":0,
			"byteOffset":2467272,
			"byteLength":305184,
			"target":34962
		},
		{
			"buffer":0,
			"byteOffset":2772456,
			"byteLength":457776,
			"target":34962
		},
		{
			"buffer":0,
			"byteOffset":3230232,
			"byteLength":152592,
			"target":34962
		},
		{
			"buffer":0,
			"byteOffset":3382824,
			"byteLength":152592,
			"target":34962
		},
		{
			"buffer":0,
			"byteOffset":3535416,
			"byteLength":152592,
			"target":34962
		},
		{
			"buffer":0,
			"byteOffset":3688008,
			"byteLength":152592,
			"target":34962
		}
	],
	"nodes":[
		{
			"name":"geo1",
			"mesh":0
		}
	],
	"meshes":[
		{
			"primitives":[
				{
					"attributes":{
						"_shadowmask":7,
						"_exposure":8,
						"TANGENT":6,
						"TEXCOORD_0":9,
						"POSITION":1,
						"NORMAL":4,
						"_Alpha":5,
						"_class":13,
						"_isCurve":12,
						"_del":11,
						"COLOR_0":10,
						"_curvature":2,
						"_restlength":14,
						"_ao":3
					},
					"indices":0,
					"material":0
				}
			],
			"name":"material9"
		}
	],
	"materials":[
		{
			"name":"unlit",
			"pbrMetallicRoughness":{
				"baseColorFactor":[0.200000003,0.200000003,0.200000003,1
				],
				"metallicFactor":0,
				"roughnessFactor":0.300000012
			}
		}
	],
	"scenes":[
		{
			"nodes":[0
			]
		}
	],
	"scene":0
}
