{
	"asset":{
		"version":"2.0",
		"generator":"Houdini GLTF 2.0 Exporter"
	},
	"accessors":[
		{
			"bufferView":0,
			"componentType":5125,
			"count":47640,
			"type":"SCALAR",
			"min":[0
			],
			"max":[40338
			]
		},
		{
			"bufferView":1,
			"componentType":5126,
			"count":40339,
			"type":"VEC3",
			"min":[-1.68168867,-18,-0.191382661
			],
			"max":[5.68168926,3.2249999,6.19101143
			]
		},
		{
			"bufferView":2,
			"componentType":5126,
			"count":40339,
			"type":"SCALAR",
			"min":[-1.57079661
			],
			"max":[6.28318548
			]
		},
		{
			"bufferView":3,
			"componentType":5126,
			"count":40339,
			"type":"SCALAR",
			"min":[0
			],
			"max":[1
			]
		},
		{
			"bufferView":4,
			"componentType":5126,
			"count":40339,
			"type":"VEC3",
			"min":[-1,-1,-1
			],
			"max":[0.0971718132,1,1
			]
		},
		{
			"bufferView":5,
			"componentType":5126,
			"count":40339,
			"type":"SCALAR",
			"min":[1
			],
			"max":[1
			]
		},
		{
			"bufferView":6,
			"componentType":5126,
			"count":40339,
			"type":"VEC4",
			"min":[-1,-0.894427538,-0.639652789,1
			],
			"max":[1,0.894427299,1,1
			]
		},
		{
			"bufferView":7,
			"componentType":5126,
			"count":40339,
			"type":"SCALAR",
			"min":[0
			],
			"max":[0.890095055
			]
		},
		{
			"bufferView":8,
			"componentType":5126,
			"count":40339,
			"type":"SCALAR",
			"min":[0
			],
			"max":[1
			]
		},
		{
			"bufferView":9,
			"componentType":5126,
			"count":40339,
			"type":"VEC2",
			"min":[0,0.0176673532
			],
			"max":[0.982614875,1
			]
		},
		{
			"bufferView":10,
			"componentType":5126,
			"count":40339,
			"type":"VEC3",
			"min":[0.120204002,0.111846134,0.0160540026
			],
			"max":[1,0.903317988,0.654000044
			]
		},
		{
			"bufferView":11,
			"componentType":5126,
			"count":40339,
			"type":"SCALAR",
			"min":[-0.324356645
			],
			"max":[0.378476292
			]
		},
		{
			"bufferView":12,
			"componentType":5125,
			"count":40339,
			"type":"SCALAR",
			"min":[0
			],
			"max":[1
			]
		},
		{
			"bufferView":13,
			"componentType":5125,
			"count":40339,
			"type":"SCALAR",
			"min":[-1
			],
			"max":[0
			]
		},
		{
			"bufferView":14,
			"componentType":5126,
			"count":40339,
			"type":"SCALAR",
			"min":[0
			],
			"max":[17.7867641
			]
		}
	],
	"buffers":[
		{
			"uri":"mesh_bdg_D_06_data.bin",
			"byteLength":4063104,
			"name":"main_buffer"
		}
	],
	"bufferViews":[
		{
			"buffer":0,
			"byteLength":190560,
			"target":34963
		},
		{
			"buffer":0,
			"byteOffset":190560,
			"byteLength":484068,
			"target":34962
		},
		{
			"buffer":0,
			"byteOffset":674628,
			"byteLength":161356,
			"target":34962
		},
		{
			"buffer":0,
			"byteOffset":835984,
			"byteLength":161356,
			"target":34962
		},
		{
			"buffer":0,
			"byteOffset":997340,
			"byteLength":484068,
			"target":34962
		},
		{
			"buffer":0,
			"byteOffset":1481408,
			"byteLength":161356,
			"target":34962
		},
		{
			"buffer":0,
			"byteOffset":1642764,
			"byteLength":645424,
			"target":34962
		},
		{
			"buffer":0,
			"byteOffset":2288188,
			"byteLength":161356,
			"target":34962
		},
		{
			"buffer":0,
			"byteOffset":2449544,
			"byteLength":161356,
			"target":34962
		},
		{
			"buffer":0,
			"byteOffset":2610900,
			"byteLength":322712,
			"target":34962
		},
		{
			"buffer":0,
			"byteOffset":2933612,
			"byteLength":484068,
			"target":34962
		},
		{
			"buffer":0,
			"byteOffset":3417680,
			"byteLength":161356,
			"target":34962
		},
		{
			"buffer":0,
			"byteOffset":3579036,
			"byteLength":161356,
			"target":34962
		},
		{
			"buffer":0,
			"byteOffset":3740392,
			"byteLength":161356,
			"target":34962
		},
		{
			"buffer":0,
			"byteOffset":3901748,
			"byteLength":161356,
			"target":34962
		}
	],
	"nodes":[
		{
			"name":"geo1",
			"mesh":0
		}
	],
	"meshes":[
		{
			"primitives":[
				{
					"attributes":{
						"_shadowmask":7,
						"_exposure":8,
						"TANGENT":6,
						"TEXCOORD_0":9,
						"POSITION":1,
						"NORMAL":4,
						"_Alpha":5,
						"_class":13,
						"_isCurve":12,
						"_del":11,
						"COLOR_0":10,
						"_curvature":2,
						"_restlength":14,
						"_ao":3
					},
					"indices":0,
					"material":0
				}
			],
			"name":"material6"
		}
	],
	"materials":[
		{
			"name":"unlit",
			"pbrMetallicRoughness":{
				"baseColorFactor":[0.200000003,0.200000003,0.200000003,1
				],
				"metallicFactor":0,
				"roughnessFactor":0.300000012
			}
		}
	],
	"scenes":[
		{
			"nodes":[0
			]
		}
	],
	"scene":0
}
