{
	"asset":{
		"version":"2.0",
		"generator":"Houdini GLTF 2.0 Exporter"
	},
	"accessors":[
		{
			"bufferView":0,
			"componentType":5125,
			"count":43938,
			"type":"SCALAR",
			"min":[0
			],
			"max":[36989
			]
		},
		{
			"bufferView":1,
			"componentType":5126,
			"count":36990,
			"type":"VEC3",
			"min":[-4.65880203,-12,-1.17633343
			],
			"max":[9.65880203,3.45000005,9.15880203
			]
		},
		{
			"bufferView":2,
			"componentType":5126,
			"count":36990,
			"type":"SCALAR",
			"min":[-1.57079661
			],
			"max":[6.28318548
			]
		},
		{
			"bufferView":3,
			"componentType":5126,
			"count":36990,
			"type":"SCALAR",
			"min":[0
			],
			"max":[1
			]
		},
		{
			"bufferView":4,
			"componentType":5126,
			"count":36990,
			"type":"VEC3",
			"min":[-1,-1,-1
			],
			"max":[1,1,1
			]
		},
		{
			"bufferView":5,
			"componentType":5126,
			"count":36990,
			"type":"SCALAR",
			"min":[1
			],
			"max":[1
			]
		},
		{
			"bufferView":6,
			"componentType":5126,
			"count":36990,
			"type":"VEC4",
			"min":[-1,-1,-1,1
			],
			"max":[1,1,1,1
			]
		},
		{
			"bufferView":7,
			"componentType":5126,
			"count":36990,
			"type":"SCALAR",
			"min":[0
			],
			"max":[0.735045314
			]
		},
		{
			"bufferView":8,
			"componentType":5126,
			"count":36990,
			"type":"SCALAR",
			"min":[0
			],
			"max":[1
			]
		},
		{
			"bufferView":9,
			"componentType":5126,
			"count":36990,
			"type":"VEC2",
			"min":[0,0.0336928368
			],
			"max":[0.982767522,1
			]
		},
		{
			"bufferView":10,
			"componentType":5126,
			"count":36990,
			"type":"VEC3",
			"min":[0.120204002,0.111846134,0.0160540026
			],
			"max":[1,0.903317988,0.654000044
			]
		},
		{
			"bufferView":11,
			"componentType":5126,
			"count":36990,
			"type":"SCALAR",
			"min":[-0.328540325
			],
			"max":[0.414605767
			]
		},
		{
			"bufferView":12,
			"componentType":5125,
			"count":36990,
			"type":"SCALAR",
			"min":[0
			],
			"max":[1
			]
		},
		{
			"bufferView":13,
			"componentType":5125,
			"count":36990,
			"type":"SCALAR",
			"min":[-1
			],
			"max":[4
			]
		},
		{
			"bufferView":14,
			"componentType":5126,
			"count":36990,
			"type":"SCALAR",
			"min":[0
			],
			"max":[12.5802517
			]
		}
	],
	"buffers":[
		{
			"uri":"mesh_bdg_C_09_data.bin",
			"byteLength":3726792,
			"name":"main_buffer"
		}
	],
	"bufferViews":[
		{
			"buffer":0,
			"byteLength":175752,
			"target":34963
		},
		{
			"buffer":0,
			"byteOffset":175752,
			"byteLength":443880,
			"target":34962
		},
		{
			"buffer":0,
			"byteOffset":619632,
			"byteLength":147960,
			"target":34962
		},
		{
			"buffer":0,
			"byteOffset":767592,
			"byteLength":147960,
			"target":34962
		},
		{
			"buffer":0,
			"byteOffset":915552,
			"byteLength":443880,
			"target":34962
		},
		{
			"buffer":0,
			"byteOffset":1359432,
			"byteLength":147960,
			"target":34962
		},
		{
			"buffer":0,
			"byteOffset":1507392,
			"byteLength":591840,
			"target":34962
		},
		{
			"buffer":0,
			"byteOffset":2099232,
			"byteLength":147960,
			"target":34962
		},
		{
			"buffer":0,
			"byteOffset":2247192,
			"byteLength":147960,
			"target":34962
		},
		{
			"buffer":0,
			"byteOffset":2395152,
			"byteLength":295920,
			"target":34962
		},
		{
			"buffer":0,
			"byteOffset":2691072,
			"byteLength":443880,
			"target":34962
		},
		{
			"buffer":0,
			"byteOffset":3134952,
			"byteLength":147960,
			"target":34962
		},
		{
			"buffer":0,
			"byteOffset":3282912,
			"byteLength":147960,
			"target":34962
		},
		{
			"buffer":0,
			"byteOffset":3430872,
			"byteLength":147960,
			"target":34962
		},
		{
			"buffer":0,
			"byteOffset":3578832,
			"byteLength":147960,
			"target":34962
		}
	],
	"nodes":[
		{
			"name":"geo1",
			"mesh":0
		}
	],
	"meshes":[
		{
			"primitives":[
				{
					"attributes":{
						"_shadowmask":7,
						"_exposure":8,
						"TANGENT":6,
						"TEXCOORD_0":9,
						"POSITION":1,
						"NORMAL":4,
						"_Alpha":5,
						"_class":13,
						"_isCurve":12,
						"_del":11,
						"COLOR_0":10,
						"_curvature":2,
						"_restlength":14,
						"_ao":3
					},
					"indices":0,
					"material":0
				}
			],
			"name":"material7"
		}
	],
	"materials":[
		{
			"name":"unlit",
			"pbrMetallicRoughness":{
				"baseColorFactor":[0.200000003,0.200000003,0.200000003,1
				],
				"metallicFactor":0,
				"roughnessFactor":0.300000012
			}
		}
	],
	"scenes":[
		{
			"nodes":[0
			]
		}
	],
	"scene":0
}
