{
	"asset":{
		"version":"2.0",
		"generator":"Houdini GLTF 2.0 Exporter"
	},
	"accessors":[
		{
			"bufferView":0,
			"componentType":5125,
			"count":57693,
			"type":"SCALAR",
			"min":[0
			],
			"max":[49990
			]
		},
		{
			"bufferView":1,
			"componentType":5126,
			"count":49991,
			"type":"VEC3",
			"min":[-0.633399904,-12.0994921,-0.130827233
			],
			"max":[10.5662899,3.45000005,8.13341904
			]
		},
		{
			"bufferView":2,
			"componentType":5126,
			"count":49991,
			"type":"SCALAR",
			"min":[-6.28318453
			],
			"max":[6.28318548
			]
		},
		{
			"bufferView":3,
			"componentType":5126,
			"count":49991,
			"type":"SCALAR",
			"min":[0
			],
			"max":[1
			]
		},
		{
			"bufferView":4,
			"componentType":5126,
			"count":49991,
			"type":"VEC3",
			"min":[-1,-1,-1
			],
			"max":[1,1,1
			]
		},
		{
			"bufferView":5,
			"componentType":5126,
			"count":49991,
			"type":"SCALAR",
			"min":[1
			],
			"max":[1
			]
		},
		{
			"bufferView":6,
			"componentType":5126,
			"count":49991,
			"type":"VEC4",
			"min":[-1,-1,-0.999985099,1
			],
			"max":[1,0.99921751,1,1
			]
		},
		{
			"bufferView":7,
			"componentType":5126,
			"count":49991,
			"type":"SCALAR",
			"min":[0
			],
			"max":[0.855247259
			]
		},
		{
			"bufferView":8,
			"componentType":5126,
			"count":49991,
			"type":"SCALAR",
			"min":[0
			],
			"max":[1
			]
		},
		{
			"bufferView":9,
			"componentType":5126,
			"count":49991,
			"type":"VEC2",
			"min":[0,0.0173795223
			],
			"max":[0.96522975,1
			]
		},
		{
			"bufferView":10,
			"componentType":5126,
			"count":49991,
			"type":"VEC3",
			"min":[0.120204002,0.122546241,0.0160540026
			],
			"max":[1,0.903317988,0.654000044
			]
		},
		{
			"bufferView":11,
			"componentType":5126,
			"count":49991,
			"type":"SCALAR",
			"min":[-0.32599023
			],
			"max":[0.541878343
			]
		},
		{
			"bufferView":12,
			"componentType":5125,
			"count":49991,
			"type":"SCALAR",
			"min":[0
			],
			"max":[1
			]
		},
		{
			"bufferView":13,
			"componentType":5125,
			"count":49991,
			"type":"SCALAR",
			"min":[-1
			],
			"max":[4
			]
		},
		{
			"bufferView":14,
			"componentType":5126,
			"count":49991,
			"type":"SCALAR",
			"min":[0
			],
			"max":[13.166893
			]
		}
	],
	"buffers":[
		{
			"uri":"mesh_bdg_E_06_data.bin",
			"byteLength":5029908,
			"name":"main_buffer"
		}
	],
	"bufferViews":[
		{
			"buffer":0,
			"byteLength":230772,
			"target":34963
		},
		{
			"buffer":0,
			"byteOffset":230772,
			"byteLength":599892,
			"target":34962
		},
		{
			"buffer":0,
			"byteOffset":830664,
			"byteLength":199964,
			"target":34962
		},
		{
			"buffer":0,
			"byteOffset":1030628,
			"byteLength":199964,
			"target":34962
		},
		{
			"buffer":0,
			"byteOffset":1230592,
			"byteLength":599892,
			"target":34962
		},
		{
			"buffer":0,
			"byteOffset":1830484,
			"byteLength":199964,
			"target":34962
		},
		{
			"buffer":0,
			"byteOffset":2030448,
			"byteLength":799856,
			"target":34962
		},
		{
			"buffer":0,
			"byteOffset":2830304,
			"byteLength":199964,
			"target":34962
		},
		{
			"buffer":0,
			"byteOffset":3030268,
			"byteLength":199964,
			"target":34962
		},
		{
			"buffer":0,
			"byteOffset":3230232,
			"byteLength":399928,
			"target":34962
		},
		{
			"buffer":0,
			"byteOffset":3630160,
			"byteLength":599892,
			"target":34962
		},
		{
			"buffer":0,
			"byteOffset":4230052,
			"byteLength":199964,
			"target":34962
		},
		{
			"buffer":0,
			"byteOffset":4430016,
			"byteLength":199964,
			"target":34962
		},
		{
			"buffer":0,
			"byteOffset":4629980,
			"byteLength":199964,
			"target":34962
		},
		{
			"buffer":0,
			"byteOffset":4829944,
			"byteLength":199964,
			"target":34962
		}
	],
	"nodes":[
		{
			"name":"geo1",
			"mesh":0
		}
	],
	"meshes":[
		{
			"primitives":[
				{
					"attributes":{
						"_shadowmask":7,
						"_exposure":8,
						"TANGENT":6,
						"TEXCOORD_0":9,
						"POSITION":1,
						"NORMAL":4,
						"_Alpha":5,
						"_class":13,
						"_isCurve":12,
						"_del":11,
						"COLOR_0":10,
						"_curvature":2,
						"_restlength":14,
						"_ao":3
					},
					"indices":0,
					"material":0
				}
			],
			"name":"material1"
		}
	],
	"materials":[
		{
			"name":"unlit",
			"pbrMetallicRoughness":{
				"baseColorFactor":[0.200000003,0.200000003,0.200000003,1
				],
				"metallicFactor":0,
				"roughnessFactor":0.300000012
			}
		}
	],
	"scenes":[
		{
			"nodes":[0
			]
		}
	],
	"scene":0
}
