{
	"asset":{
		"version":"2.0",
		"generator":"Houdini GLTF 2.0 Exporter"
	},
	"accessors":[
		{
			"bufferView":0,
			"componentType":5123,
			"count":15354,
			"type":"SCALAR",
			"min":[0
			],
			"max":[12756
			]
		},
		{
			"bufferView":1,
			"componentType":5126,
			"count":12757,
			"type":"VEC3",
			"min":[-1.68712926,-27.0828018,-0.190455228
			],
			"max":[5.6868372,3.23775578,6.19106102
			]
		},
		{
			"bufferView":2,
			"componentType":5126,
			"count":12757,
			"type":"VEC3",
			"min":[-1,-1,-1
			],
			"max":[1,1,1
			]
		},
		{
			"bufferView":3,
			"componentType":5126,
			"count":12757,
			"type":"SCALAR",
			"min":[0
			],
			"max":[0.700709224
			]
		},
		{
			"bufferView":4,
			"componentType":5126,
			"count":12757,
			"type":"SCALAR",
			"min":[-1.57079661
			],
			"max":[6.28318548
			]
		},
		{
			"bufferView":5,
			"componentType":5126,
			"count":12757,
			"type":"VEC4",
			"min":[-1,-0.999955237,-0.669552028,1
			],
			"max":[1,0.894427299,1,1
			]
		},
		{
			"bufferView":6,
			"componentType":5126,
			"count":12757,
			"type":"VEC2",
			"min":[0,0.0196708441
			],
			"max":[0.980389655,1
			]
		},
		{
			"bufferView":7,
			"componentType":5126,
			"count":12757,
			"type":"VEC3",
			"min":[0.194850042,0.203386307,0.0160540026
			],
			"max":[1,0.779268742,0.848999977
			]
		},
		{
			"bufferView":8,
			"componentType":5125,
			"count":12757,
			"type":"SCALAR",
			"min":[-1
			],
			"max":[10
			]
		},
		{
			"bufferView":9,
			"componentType":5126,
			"count":12757,
			"type":"SCALAR",
			"min":[0
			],
			"max":[0.998359263
			]
		},
		{
			"bufferView":10,
			"componentType":5126,
			"count":12757,
			"type":"SCALAR",
			"min":[0
			],
			"max":[1
			]
		},
		{
			"bufferView":11,
			"componentType":5126,
			"count":12757,
			"type":"SCALAR",
			"min":[0
			],
			"max":[1
			]
		},
		{
			"bufferView":12,
			"componentType":5126,
			"count":12757,
			"type":"SCALAR",
			"min":[0
			],
			"max":[0
			]
		},
		{
			"bufferView":13,
			"componentType":5126,
			"count":12757,
			"type":"SCALAR",
			"min":[-0.333007008
			],
			"max":[0.461396337
			]
		},
		{
			"bufferView":14,
			"componentType":5126,
			"count":12757,
			"type":"SCALAR",
			"min":[0
			],
			"max":[1
			]
		},
		{
			"bufferView":15,
			"componentType":5126,
			"count":12757,
			"type":"SCALAR",
			"min":[0
			],
			"max":[15.6777964
			]
		},
		{
			"bufferView":16,
			"componentType":5125,
			"count":12757,
			"type":"SCALAR",
			"min":[0
			],
			"max":[0
			]
		},
		{
			"bufferView":17,
			"componentType":5126,
			"count":12757,
			"type":"SCALAR",
			"min":[0
			],
			"max":[0.633199036
			]
		},
		{
			"bufferView":18,
			"componentType":5125,
			"count":12757,
			"type":"SCALAR",
			"min":[0
			],
			"max":[1
			]
		},
		{
			"bufferView":19,
			"componentType":5125,
			"count":12757,
			"type":"SCALAR",
			"min":[-1
			],
			"max":[1
			]
		},
		{
			"bufferView":20,
			"componentType":5125,
			"count":12757,
			"type":"SCALAR",
			"min":[-1
			],
			"max":[16
			]
		},
		{
			"bufferView":21,
			"componentType":5126,
			"count":12757,
			"type":"SCALAR",
			"min":[0
			],
			"max":[36
			]
		},
		{
			"bufferView":22,
			"componentType":5123,
			"count":342,
			"type":"SCALAR",
			"min":[0
			],
			"max":[227
			]
		},
		{
			"bufferView":23,
			"componentType":5126,
			"count":228,
			"type":"VEC3",
			"min":[-1.35053027,-8.5080204,0.149469748
			],
			"max":[4.69575787,2.4350872,5.85053015
			]
		},
		{
			"bufferView":24,
			"componentType":5126,
			"count":228,
			"type":"VEC3",
			"min":[-1,0,-1
			],
			"max":[0,0,1
			]
		},
		{
			"bufferView":25,
			"componentType":5126,
			"count":228,
			"type":"SCALAR",
			"min":[0.930247426
			],
			"max":[1
			]
		},
		{
			"bufferView":26,
			"componentType":5126,
			"count":228,
			"type":"SCALAR",
			"min":[6.28318548
			],
			"max":[6.28318548
			]
		},
		{
			"bufferView":27,
			"componentType":5126,
			"count":228,
			"type":"VEC4",
			"min":[-1,-0.639602244,-3.19603396e-06,1
			],
			"max":[1,0.707106769,1,1
			]
		},
		{
			"bufferView":28,
			"componentType":5126,
			"count":228,
			"type":"VEC2",
			"min":[0,0.0993105173
			],
			"max":[0.917698145,0.963416278
			]
		},
		{
			"bufferView":29,
			"componentType":5126,
			"count":228,
			"type":"VEC3",
			"min":[0.0551819988,0.0575229004,0.101999998
			],
			"max":[0.62432611,0.730458736,0.998947978
			]
		},
		{
			"bufferView":30,
			"componentType":5125,
			"count":228,
			"type":"SCALAR",
			"min":[-1
			],
			"max":[-1
			]
		},
		{
			"bufferView":31,
			"componentType":5126,
			"count":228,
			"type":"SCALAR",
			"min":[0.990783334
			],
			"max":[1
			]
		},
		{
			"bufferView":32,
			"componentType":5126,
			"count":228,
			"type":"SCALAR",
			"min":[0
			],
			"max":[0
			]
		},
		{
			"bufferView":33,
			"componentType":5126,
			"count":228,
			"type":"SCALAR",
			"min":[0
			],
			"max":[0
			]
		},
		{
			"bufferView":34,
			"componentType":5126,
			"count":228,
			"type":"SCALAR",
			"min":[0
			],
			"max":[0.839004874
			]
		},
		{
			"bufferView":35,
			"componentType":5126,
			"count":228,
			"type":"SCALAR",
			"min":[0
			],
			"max":[0.333333522
			]
		},
		{
			"bufferView":36,
			"componentType":5126,
			"count":228,
			"type":"SCALAR",
			"min":[0
			],
			"max":[0
			]
		},
		{
			"bufferView":37,
			"componentType":5126,
			"count":228,
			"type":"SCALAR",
			"min":[0
			],
			"max":[0
			]
		},
		{
			"bufferView":38,
			"componentType":5125,
			"count":228,
			"type":"SCALAR",
			"min":[0
			],
			"max":[0
			]
		},
		{
			"bufferView":39,
			"componentType":5126,
			"count":228,
			"type":"SCALAR",
			"min":[0
			],
			"max":[0
			]
		},
		{
			"bufferView":40,
			"componentType":5125,
			"count":228,
			"type":"SCALAR",
			"min":[0
			],
			"max":[0
			]
		},
		{
			"bufferView":41,
			"componentType":5125,
			"count":228,
			"type":"SCALAR",
			"min":[-1
			],
			"max":[-1
			]
		},
		{
			"bufferView":42,
			"componentType":5125,
			"count":228,
			"type":"SCALAR",
			"min":[-1
			],
			"max":[-1
			]
		},
		{
			"bufferView":43,
			"componentType":5126,
			"count":228,
			"type":"SCALAR",
			"min":[0
			],
			"max":[0
			]
		}
	],
	"buffers":[
		{
			"uri":"mesh_bdg_D_06_data.bin",
			"byteLength":1641532,
			"name":"main_buffer"
		}
	],
	"bufferViews":[
		{
			"buffer":0,
			"byteLength":30708,
			"target":34963
		},
		{
			"buffer":0,
			"byteOffset":30708,
			"byteLength":153084,
			"target":34962
		},
		{
			"buffer":0,
			"byteOffset":183792,
			"byteLength":153084,
			"target":34962
		},
		{
			"buffer":0,
			"byteOffset":336876,
			"byteLength":51028,
			"target":34962
		},
		{
			"buffer":0,
			"byteOffset":387904,
			"byteLength":51028,
			"target":34962
		},
		{
			"buffer":0,
			"byteOffset":438932,
			"byteLength":204112,
			"target":34962
		},
		{
			"buffer":0,
			"byteOffset":643044,
			"byteLength":102056,
			"target":34962
		},
		{
			"buffer":0,
			"byteOffset":745100,
			"byteLength":153084,
			"target":34962
		},
		{
			"buffer":0,
			"byteOffset":898184,
			"byteLength":51028,
			"target":34962
		},
		{
			"buffer":0,
			"byteOffset":949212,
			"byteLength":51028,
			"target":34962
		},
		{
			"buffer":0,
			"byteOffset":1000240,
			"byteLength":51028,
			"target":34962
		},
		{
			"buffer":0,
			"byteOffset":1051268,
			"byteLength":51028,
			"target":34962
		},
		{
			"buffer":0,
			"byteOffset":1102296,
			"byteLength":51028,
			"target":34962
		},
		{
			"buffer":0,
			"byteOffset":1153324,
			"byteLength":51028,
			"target":34962
		},
		{
			"buffer":0,
			"byteOffset":1204352,
			"byteLength":51028,
			"target":34962
		},
		{
			"buffer":0,
			"byteOffset":1255380,
			"byteLength":51028,
			"target":34962
		},
		{
			"buffer":0,
			"byteOffset":1306408,
			"byteLength":51028,
			"target":34962
		},
		{
			"buffer":0,
			"byteOffset":1357436,
			"byteLength":51028,
			"target":34962
		},
		{
			"buffer":0,
			"byteOffset":1408464,
			"byteLength":51028,
			"target":34962
		},
		{
			"buffer":0,
			"byteOffset":1459492,
			"byteLength":51028,
			"target":34962
		},
		{
			"buffer":0,
			"byteOffset":1510520,
			"byteLength":51028,
			"target":34962
		},
		{
			"buffer":0,
			"byteOffset":1561548,
			"byteLength":51028,
			"target":34962
		},
		{
			"buffer":0,
			"byteOffset":1612576,
			"byteLength":684,
			"target":34963
		},
		{
			"buffer":0,
			"byteOffset":1613260,
			"byteLength":2736,
			"target":34962
		},
		{
			"buffer":0,
			"byteOffset":1615996,
			"byteLength":2736,
			"target":34962
		},
		{
			"buffer":0,
			"byteOffset":1618732,
			"byteLength":912,
			"target":34962
		},
		{
			"buffer":0,
			"byteOffset":1619644,
			"byteLength":912,
			"target":34962
		},
		{
			"buffer":0,
			"byteOffset":1620556,
			"byteLength":3648,
			"target":34962
		},
		{
			"buffer":0,
			"byteOffset":1624204,
			"byteLength":1824,
			"target":34962
		},
		{
			"buffer":0,
			"byteOffset":1626028,
			"byteLength":2736,
			"target":34962
		},
		{
			"buffer":0,
			"byteOffset":1628764,
			"byteLength":912,
			"target":34962
		},
		{
			"buffer":0,
			"byteOffset":1629676,
			"byteLength":912,
			"target":34962
		},
		{
			"buffer":0,
			"byteOffset":1630588,
			"byteLength":912,
			"target":34962
		},
		{
			"buffer":0,
			"byteOffset":1631500,
			"byteLength":912,
			"target":34962
		},
		{
			"buffer":0,
			"byteOffset":1632412,
			"byteLength":912,
			"target":34962
		},
		{
			"buffer":0,
			"byteOffset":1633324,
			"byteLength":912,
			"target":34962
		},
		{
			"buffer":0,
			"byteOffset":1634236,
			"byteLength":912,
			"target":34962
		},
		{
			"buffer":0,
			"byteOffset":1635148,
			"byteLength":912,
			"target":34962
		},
		{
			"buffer":0,
			"byteOffset":1636060,
			"byteLength":912,
			"target":34962
		},
		{
			"buffer":0,
			"byteOffset":1636972,
			"byteLength":912,
			"target":34962
		},
		{
			"buffer":0,
			"byteOffset":1637884,
			"byteLength":912,
			"target":34962
		},
		{
			"buffer":0,
			"byteOffset":1638796,
			"byteLength":912,
			"target":34962
		},
		{
			"buffer":0,
			"byteOffset":1639708,
			"byteLength":912,
			"target":34962
		},
		{
			"buffer":0,
			"byteOffset":1640620,
			"byteLength":912,
			"target":34962
		}
	],
	"nodes":[
		{
			"name":"geo1",
			"mesh":0
		}
	],
	"meshes":[
		{
			"primitives":[
				{
					"attributes":{
						"_cluster":21,
						"_shadowmask":10,
						"_exposure":9,
						"TANGENT":5,
						"TEXCOORD_0":6,
						"POSITION":1,
						"_zscale":17,
						"_cut_edge":16,
						"NORMAL":2,
						"_furn":8,
						"_window_prim":12,
						"_class":20,
						"_isCurve":18,
						"_mask":14,
						"_del":13,
						"COLOR_0":7,
						"_intbby":11,
						"_curvature":4,
						"_restlength":15,
						"_furn2":19,
						"_ao":3
					},
					"indices":0,
					"material":0
				},
				{
					"attributes":{
						"_cluster":43,
						"_shadowmask":32,
						"_exposure":31,
						"TANGENT":27,
						"TEXCOORD_0":28,
						"POSITION":23,
						"_zscale":39,
						"_cut_edge":38,
						"NORMAL":24,
						"_furn":30,
						"_window_prim":34,
						"_class":42,
						"_isCurve":40,
						"_mask":36,
						"_del":35,
						"COLOR_0":29,
						"_intbby":33,
						"_curvature":26,
						"_restlength":37,
						"_furn2":41,
						"_ao":25
					},
					"indices":22,
					"material":1
				}
			],
			"name":"material6"
		}
	],
	"materials":[
		{
			"name":"bdg",
			"pbrMetallicRoughness":{
				"metallicFactor":0,
				"roughnessFactor":0.300000012
			}
		},
		{
			"name":"windows",
			"pbrMetallicRoughness":{
				"baseColorFactor":[0.200000003,0.200000003,0.200000003,1
				],
				"metallicFactor":0,
				"roughnessFactor":0.300000012
			}
		}
	],
	"scenes":[
		{
			"nodes":[0
			]
		}
	],
	"scene":0
}
